<?xml version="1.0" encoding="UTF-8" standalone="no"?>
<!DOCTYPE svg PUBLIC "-//W3C//DTD SVG 1.1//EN" "http://www.w3.org/Graphics/SVG/1.1/DTD/svg11.dtd">
<svg xmlns="http://www.w3.org/2000/svg" version="1.1" viewBox="0 0 630 630">
<path fill="#f9e401" d="
  M 630.00 306.56
  L 630.00 323.06
  Q 628.73 355.38 623.00 381.50
  Q 603.07 472.26 537.22 538.33
  Q 530.18 545.39 522.58 551.95
  Q 438.10 624.80 324.69 630.00
  L 307.19 630.00
  Q 306.91 629.79 305.75 629.75
  Q 217.37 626.68 144.06 579.44
  Q 99.56 550.76 66.59 508.42
  Q 60.49 500.58 54.83 492.24
  Q 5.62 419.61 0.67 331.49
  Q 0.11 321.49 0.26 311.50
  Q 1.63 224.11 47.25 149.75
  Q 68.17 115.66 97.81 87.56
  Q 129.19 57.82 164.65 38.61
  Q 212.24 12.82 265.78 4.43
  Q 346.10 -8.16 421.50 19.00
  Q 489.34 43.44 540.14 94.96
  Q 547.10 102.01 553.65 109.71
  Q 625.35 194.01 630.00 306.56
  Z
  M 363.24 81.67
  Q 358.58 78.35 354.31 75.94
  Q 352.21 74.75 350.85 73.40
  Q 349.51 72.07 349.21 69.64
  Q 348.23 61.70 348.75 52.75
  Q 348.96 49.09 351.21 46.67
  A 1.25 1.07 18.1 0 1 352.05 46.32
  Q 354.11 46.26 355.54 44.99
  Q 357.76 43.01 357.86 42.95
  Q 360.56 41.22 363.48 39.89
  A 0.43 0.37 -31.9 0 0 363.67 39.27
  Q 363.30 38.84 362.67 38.87
  Q 362.31 38.88 361.45 39.42
  Q 360.25 40.18 359.81 38.79
  A 0.62 0.58 77.0 0 0 359.19 38.37
  Q 355.99 38.73 352.81 38.63
  Q 347.19 38.47 341.68 39.47
  A 0.64 0.54 72.4 0 1 341.05 39.07
  Q 340.64 38.08 339.25 38.25
  Q 331.56 39.19 320.88 38.41
  Q 319.49 38.31 318.26 38.63
  Q 316.98 38.96 315.72 39.35
  A 0.72 0.67 83.3 0 0 315.24 40.00
  Q 315.09 43.34 312.58 45.38
  A 1.40 1.33 -15.5 0 0 312.10 46.18
  Q 310.99 51.81 307.72 56.53
  A 1.05 0.86 -69.9 0 1 306.94 56.99
  Q 305.69 56.98 305.41 55.42
  Q 304.78 51.95 302.60 49.24
  A 1.31 1.30 37.9 0 1 302.43 47.90
  Q 303.27 46.03 301.55 44.98
  Q 299.88 43.96 300.02 42.01
  Q 300.22 39.06 297.56 39.36
  A 0.97 0.91 65.1 0 1 296.76 39.04
  Q 295.85 38.01 294.43 38.39
  Q 290.63 39.40 286.74 38.80
  Q 282.65 38.16 278.78 39.52
  A 0.44 0.42 74.1 0 1 278.23 39.20
  Q 277.82 37.50 276.25 38.00
  Q 272.59 39.17 270.54 38.78
  Q 265.04 37.73 259.79 39.52
  A 0.57 0.55 67.4 0 1 259.12 39.23
  Q 258.17 37.27 256.11 38.43
  Q 255.71 38.65 255.19 38.71
  Q 254.23 38.83 254.21 39.45
  A 0.63 0.47 2.2 0 0 254.81 39.94
  Q 256.35 40.00 257.43 40.92
  Q 259.43 42.63 259.45 42.64
  Q 261.16 43.66 262.99 44.43
  Q 264.04 44.87 264.62 45.58
  Q 265.28 46.37 265.81 47.25
  A 1.00 0.97 -11.9 0 0 266.56 47.72
  Q 270.85 48.11 269.80 53.40
  Q 269.48 55.00 269.52 56.60
  L 269.92 71.69
  A 0.76 0.51 85.6 0 1 269.50 72.43
  L 268.74 72.56
  A 1.26 0.23 -7.0 0 0 267.87 72.83
  Q 264.39 75.86 260.73 78.68
  Q 259.66 79.49 258.22 80.13
  Q 256.88 80.73 255.58 81.40
  Q 254.60 81.91 255.48 82.31
  Q 255.75 82.44 256.17 82.45
  Q 260.08 82.55 264.00 82.75
  Q 265.44 82.82 268.75 82.75
  Q 278.00 82.55 289.19 82.79
  Q 290.26 82.82 291.25 82.39
  Q 292.66 81.79 294.84 82.89
  A 0.79 0.78 -67.4 0 0 295.94 82.43
  Q 296.34 81.18 294.99 80.84
  Q 294.45 80.70 294.09 80.45
  Q 291.89 78.88 289.12 78.22
  A 1.32 1.32 10.7 0 1 288.12 76.76
  Q 288.33 75.20 286.95 74.86
  Q 285.43 74.48 283.96 73.92
  Q 281.84 73.12 281.99 71.25
  Q 282.19 68.82 281.63 66.48
  A 0.87 0.77 -30.6 0 1 281.89 65.69
  Q 282.91 64.75 282.25 63.43
  Q 282.01 62.93 282.03 62.50
  Q 282.52 54.53 281.85 46.56
  A 0.40 0.37 -86.4 0 1 282.30 46.13
  Q 283.88 46.48 283.81 48.50
  Q 283.74 50.54 284.75 52.30
  Q 287.94 57.87 290.09 63.35
  Q 292.37 69.15 292.74 69.96
  Q 294.81 74.61 295.94 76.31
  Q 296.86 77.71 296.63 79.02
  A 1.41 0.91 -64.8 0 0 296.75 79.92
  Q 297.70 81.42 299.22 82.19
  Q 300.26 82.72 302.36 82.54
  Q 304.69 82.35 307.02 82.75
  Q 309.91 83.25 311.22 80.62
  Q 312.15 78.76 312.97 76.54
  Q 313.63 74.73 314.77 72.51
  Q 315.92 70.26 316.67 67.85
  Q 317.18 66.23 318.51 63.95
  Q 320.39 60.73 320.10 56.80
  A 0.35 0.31 6.8 0 1 320.54 56.49
  Q 322.95 57.16 323.03 52.43
  Q 323.07 50.15 324.95 48.87
  Q 325.46 48.53 325.86 46.60
  Q 325.92 46.31 325.90 45.77
  Q 325.88 44.82 326.50 45.06
  A 0.84 0.65 -82.4 0 1 326.93 45.81
  L 326.69 73.20
  A 0.64 0.63 -6.6 0 1 326.21 73.80
  Q 324.46 74.21 322.82 74.89
  Q 321.44 75.47 319.65 77.25
  Q 317.23 79.65 314.05 81.02
  Q 313.42 81.30 313.13 81.70
  Q 312.30 82.91 313.99 82.96
  Q 314.48 82.97 315.34 82.72
  Q 317.54 82.09 319.77 82.62
  A 1.61 1.43 -46.5 0 0 320.70 82.54
  Q 321.73 82.13 322.69 82.31
  Q 325.22 82.79 327.59 82.61
  Q 330.48 82.39 332.43 82.48
  Q 334.32 82.56 336.20 82.35
  Q 338.57 82.08 339.94 82.18
  Q 342.64 82.38 345.31 82.74
  Q 345.76 82.80 346.27 82.63
  Q 348.03 82.01 350.50 82.75
  Q 352.10 83.23 354.54 82.41
  A 1.67 1.40 40.4 0 1 355.47 82.42
  Q 357.13 82.92 358.79 82.41
  A 1.60 1.21 39.7 0 1 359.70 82.45
  Q 361.00 82.89 363.15 82.23
  Q 363.76 82.04 363.24 81.67
  Z
  M 412.87 97.35
  Q 410.60 95.87 411.47 93.76
  A 0.61 0.58 -61.2 0 0 411.28 93.04
  L 406.40 89.56
  A 0.67 0.66 -61.1 0 1 406.18 88.79
  Q 407.65 85.06 408.64 81.19
  Q 408.79 80.59 408.89 78.67
  Q 408.96 77.31 409.59 76.15
  Q 410.73 74.03 410.84 73.49
  Q 411.15 72.02 411.04 70.50
  A 1.39 1.24 64.8 0 1 411.31 69.60
  Q 413.75 66.52 417.12 64.56
  A 1.90 1.60 27.0 0 1 418.07 64.34
  Q 420.77 64.41 423.32 63.59
  Q 423.61 63.50 425.29 62.37
  Q 426.48 61.58 427.89 62.41
  A 1.14 0.59 37.6 0 0 428.81 62.58
  L 430.55 61.75
  Q 431.08 61.50 430.49 61.20
  Q 428.06 59.95 425.44 59.36
  Q 421.75 58.53 420.34 57.96
  Q 415.98 56.22 411.69 54.31
  Q 408.66 52.97 404.32 52.94
  A 1.21 0.74 -10.0 0 1 403.46 52.60
  L 402.74 51.68
  A 1.18 0.75 64.3 0 0 402.01 51.23
  Q 398.29 51.05 394.78 49.85
  A 1.31 0.97 80.1 0 1 394.13 49.23
  Q 393.52 47.95 392.00 47.75
  Q 387.34 47.16 383.13 45.18
  Q 382.73 44.99 382.34 45.00
  Q 379.96 45.06 382.48 46.22
  A 2.78 2.75 -88.7 0 1 383.89 47.71
  Q 384.81 50.06 386.28 51.72
  Q 389.64 55.50 392.81 59.43
  A 0.90 0.90 -47.8 0 1 392.86 60.49
  Q 391.23 62.97 390.87 65.82
  A 1.06 0.93 -13.7 0 1 390.37 66.54
  Q 389.25 67.21 389.00 68.43
  Q 388.62 70.30 388.59 70.39
  Q 387.42 73.82 386.76 78.81
  A 2.02 2.02 -11.7 0 1 385.80 80.27
  Q 379.26 84.17 369.86 85.48
  A 2.34 2.30 -35.4 0 1 368.55 85.27
  Q 367.14 84.59 367.79 86.66
  A 1.53 1.52 83.3 0 0 369.14 87.73
  Q 371.17 87.86 373.02 88.18
  Q 374.35 88.40 376.75 89.29
  Q 379.63 90.36 382.68 90.90
  Q 382.95 90.95 383.82 90.94
  Q 385.07 90.92 384.38 92.31
  A 0.40 0.40 -70.5 0 0 384.65 92.88
  L 392.19 94.45
  A 1.23 1.03 77.3 0 1 392.91 95.00
  Q 393.62 96.15 394.98 96.18
  Q 397.33 96.23 397.50 96.27
  Q 403.76 97.68 409.54 100.49
  Q 409.61 100.52 410.75 101.27
  Q 412.51 102.43 416.02 101.67
  Q 418.08 101.23 416.44 99.91
  Q 414.98 98.73 412.87 97.35
  Z
  M 496.28 135.78
  Q 495.72 134.99 494.98 134.04
  Q 494.46 133.36 493.41 132.60
  Q 491.86 131.48 490.82 129.86
  A 1.88 1.76 85.5 0 0 490.12 129.22
  Q 486.81 127.53 484.71 124.48
  Q 484.53 124.21 483.97 123.91
  L 479.46 121.50
  A 0.99 0.61 -81.5 0 1 479.11 120.68
  Q 479.12 119.39 477.98 118.91
  A 1.68 1.23 3.1 0 1 477.26 118.32
  Q 476.21 116.60 474.18 116.15
  A 1.08 1.02 -6.3 0 1 473.47 115.61
  Q 472.45 113.60 470.61 112.34
  A 0.92 0.67 43.2 0 0 469.72 112.23
  Q 469.09 112.63 470.19 113.56
  Q 472.34 115.40 471.41 118.52
  A 1.63 1.16 -54.5 0 0 471.41 119.47
  L 475.48 129.85
  A 1.43 1.04 51.0 0 1 475.53 130.79
  Q 474.58 133.33 472.06 132.69
  Q 469.86 132.13 466.93 130.10
  Q 466.85 130.04 463.22 127.92
  Q 460.36 126.25 458.93 122.88
  A 3.07 3.01 -89.4 0 0 457.41 121.30
  Q 454.86 120.11 454.09 117.75
  Q 453.64 116.37 453.59 113.22
  Q 453.54 109.80 454.65 106.53
  A 1.76 1.49 -13.7 0 1 455.21 105.76
  Q 459.05 102.79 461.33 98.51
  A 0.88 0.85 12.5 0 1 462.06 98.06
  Q 463.99 97.99 465.77 97.15
  A 1.82 1.80 -41.1 0 1 467.52 97.26
  Q 468.98 98.21 470.18 97.45
  Q 471.78 96.44 473.51 97.23
  Q 481.44 100.88 486.20 107.21
  Q 487.47 108.89 489.30 109.93
  Q 491.22 111.02 490.66 113.03
  A 0.87 0.79 -60.9 0 0 490.85 113.85
  Q 495.09 118.25 496.50 124.25
  Q 496.94 126.14 499.00 131.75
  Q 499.20 132.29 498.71 132.76
  A 0.75 0.27 -45.4 0 0 498.36 133.53
  Q 498.77 133.80 501.01 132.24
  Q 501.62 131.82 501.95 131.42
  L 510.20 121.64
  Q 510.52 121.27 510.98 121.08
  Q 512.45 120.48 511.05 119.87
  Q 510.53 119.64 510.15 119.38
  Q 507.62 117.63 504.78 118.52
  A 0.58 0.58 -23.3 0 1 504.09 118.25
  Q 503.32 116.86 501.90 116.04
  Q 500.54 115.25 501.49 114.01
  A 0.65 0.65 -42.8 0 0 501.52 113.25
  Q 500.48 111.69 499.38 110.38
  Q 498.59 109.44 497.33 107.50
  Q 496.17 105.71 494.35 104.27
  Q 493.03 103.23 493.08 101.54
  Q 493.12 100.55 492.10 100.00
  Q 490.93 99.37 490.66 99.14
  Q 485.83 95.16 480.82 91.41
  Q 480.78 91.38 477.53 89.32
  Q 475.99 88.35 474.47 86.85
  A 2.85 2.84 -29.5 0 0 471.79 86.11
  Q 469.73 86.62 468.66 84.76
  A 1.59 1.19 79.7 0 0 467.97 84.12
  Q 461.54 81.47 452.25 80.50
  Q 447.78 80.04 444.89 82.19
  A 1.69 1.58 -63.5 0 1 444.01 82.52
  Q 439.84 82.77 437.61 85.63
  Q 435.70 88.08 434.57 91.53
  Q 433.56 94.62 434.25 98.50
  Q 434.38 99.22 434.65 102.57
  Q 434.69 103.04 434.96 103.47
  Q 436.98 106.57 437.00 110.91
  A 1.24 0.79 27.4 0 0 437.45 111.69
  L 441.38 114.92
  A 0.86 0.52 -65.7 0 1 441.48 115.76
  Q 441.15 116.69 441.87 117.43
  Q 442.27 117.83 442.40 118.22
  Q 443.37 120.98 445.68 122.82
  Q 450.13 126.36 453.81 130.69
  Q 454.40 131.38 458.23 133.11
  A 1.15 0.84 88.2 0 1 458.77 133.80
  L 459.24 135.34
  A 1.15 0.86 6.7 0 0 459.91 135.98
  Q 461.32 136.50 462.70 137.09
  Q 463.74 137.53 465.15 138.73
  Q 466.90 140.22 469.11 140.95
  Q 470.38 141.37 471.54 142.15
  Q 472.71 142.93 474.03 143.41
  Q 475.86 144.06 476.60 144.70
  Q 477.72 145.68 478.57 146.92
  Q 478.74 147.16 479.78 148.26
  Q 480.45 148.98 480.51 150.00
  Q 480.53 150.35 480.79 150.91
  L 482.37 154.26
  A 1.18 0.31 68.5 0 0 482.92 155.01
  Q 483.41 155.17 483.70 154.48
  Q 485.19 150.87 488.15 148.46
  Q 489.33 147.50 490.02 146.68
  Q 490.86 145.67 491.73 144.69
  A 0.88 0.82 -62.1 0 1 492.54 144.41
  Q 494.09 144.73 495.54 145.34
  Q 496.49 145.74 497.17 145.70
  Q 498.15 145.65 498.82 145.26
  A 1.72 1.72 53.8 0 1 501.00 145.60
  Q 502.98 147.85 505.30 146.29
  Q 506.69 145.35 508.07 146.41
  Q 509.50 147.51 508.54 145.98
  Q 506.87 143.29 503.57 141.99
  Q 501.85 141.32 502.06 139.49
  Q 502.21 138.07 498.86 137.44
  Q 497.23 137.14 496.28 135.78
  Z
  M 165.11 124.89
  Q 164.99 124.38 163.82 123.78
  Q 159.72 121.67 158.56 117.30
  A 1.61 0.72 84.8 0 0 158.09 116.46
  L 153.93 113.24
  A 1.60 0.90 22.7 0 1 153.37 112.52
  Q 152.42 109.19 149.45 106.88
  A 0.59 0.58 -44.1 0 1 149.47 105.95
  Q 151.45 104.49 150.93 101.76
  Q 150.50 99.53 152.28 98.69
  A 0.79 0.71 -14.7 0 0 152.73 98.01
  Q 152.65 94.38 154.66 91.46
  Q 155.06 90.89 155.12 90.44
  Q 155.25 89.44 154.56 89.31
  A 1.05 0.71 -58.9 0 0 153.73 89.69
  Q 151.41 92.38 150.69 92.94
  Q 129.52 109.23 118.75 118.75
  Q 116.47 120.77 114.84 121.32
  Q 114.33 121.49 114.14 121.74
  Q 113.77 122.23 114.12 122.67
  A 1.07 0.84 -19.1 0 0 114.99 122.97
  L 131.95 121.14
  A 0.69 0.67 -15.0 0 1 132.64 121.53
  Q 133.73 123.86 135.42 125.76
  Q 135.69 126.07 137.51 127.18
  Q 138.72 127.92 139.00 129.45
  Q 139.10 130.02 139.36 130.33
  L 146.52 138.90
  A 1.60 1.53 46.0 0 1 146.53 140.93
  Q 144.94 142.73 145.22 144.72
  Q 145.57 147.18 143.70 148.27
  A 0.90 0.82 -16.7 0 0 143.26 149.00
  Q 143.22 151.97 141.17 154.69
  Q 140.55 155.51 141.52 155.17
  Q 146.04 153.61 148.63 150.73
  Q 149.61 149.64 150.85 148.81
  Q 151.85 148.14 153.25 147.00
  Q 179.63 125.64 205.76 104.45
  A 1.16 1.12 -38.5 0 0 205.97 102.86
  L 192.39 85.45
  Q 192.08 85.05 192.08 85.56
  Q 192.07 86.94 191.50 88.75
  Q 189.28 95.77 187.12 105.57
  Q 186.64 107.72 185.93 108.76
  Q 185.05 110.04 183.56 111.31
  Q 175.68 118.08 166.54 125.38
  A 0.90 0.90 63.8 0 1 165.11 124.89
  Z
  M 506.11 307.99
  A 197.27 197.27 0.0 0 0 308.84 110.72
  A 197.27 197.27 0.0 0 0 111.57 307.99
  A 197.27 197.27 0.0 0 0 308.84 505.26
  A 197.27 197.27 0.0 0 0 506.11 307.99
  Z
  M 506.17 169.22
  Q 505.30 166.77 502.57 166.90
  A 1.88 1.14 -19.1 0 1 501.63 166.70
  Q 500.87 166.26 499.50 165.25
  Q 498.52 164.53 497.62 165.17
  A 0.48 0.43 49.8 0 0 497.60 165.86
  Q 498.44 166.73 499.12 167.73
  Q 499.59 168.43 499.90 169.94
  Q 500.47 172.70 502.94 174.56
  Q 504.19 175.51 503.69 177.04
  A 1.71 1.21 -51.6 0 0 503.64 177.99
  Q 505.09 182.68 508.56 186.10
  Q 508.60 186.14 510.05 187.25
  Q 511.52 188.39 510.80 189.88
  Q 510.01 191.52 511.34 192.77
  Q 515.08 196.31 516.47 200.04
  Q 516.48 200.07 517.09 203.14
  Q 517.65 205.99 520.32 207.52
  A 0.35 0.33 -70.6 0 0 520.81 207.26
  L 523.06 194.58
  A 2.73 2.29 -19.4 0 1 523.92 193.13
  Q 526.43 190.97 529.01 190.14
  A 0.75 0.75 -27.8 0 1 529.82 190.39
  Q 532.06 193.15 533.80 196.23
  Q 533.84 196.30 535.25 199.94
  Q 536.09 202.08 538.03 203.53
  Q 538.52 203.89 538.63 204.26
  Q 538.78 204.78 538.57 205.27
  A 0.65 0.58 -59.2 0 0 538.71 206.00
  Q 541.31 208.16 541.19 211.51
  A 1.90 1.46 -18.7 0 1 540.27 212.89
  L 535.80 215.57
  A 1.51 1.30 -24.6 0 1 533.65 214.95
  Q 533.08 212.93 531.22 212.87
  Q 528.87 212.78 528.77 212.76
  Q 525.90 212.08 523.44 210.42
  Q 522.84 210.01 522.33 209.93
  Q 520.69 209.68 521.52 211.21
  Q 523.31 214.55 525.24 217.82
  Q 527.39 221.47 528.89 224.44
  Q 533.57 233.72 538.43 242.91
  Q 539.07 244.12 541.03 246.25
  Q 543.76 249.20 543.59 253.43
  A 0.62 0.51 -86.4 0 0 544.04 254.06
  Q 544.67 254.12 544.75 253.50
  Q 545.32 249.15 545.91 239.56
  Q 545.93 239.15 545.69 238.62
  Q 545.40 237.96 545.51 237.33
  Q 545.62 236.70 546.49 236.07
  Q 551.43 232.50 556.64 229.32
  Q 557.03 229.08 557.57 229.05
  Q 560.49 228.89 562.21 226.66
  A 1.52 1.34 8.6 0 1 563.00 226.15
  L 567.02 225.15
  A 1.70 1.24 -33.7 0 1 567.97 225.19
  Q 571.61 226.70 574.90 228.86
  Q 577.22 230.38 578.97 231.09
  Q 581.16 231.99 583.35 232.78
  Q 584.40 233.16 583.79 232.22
  Q 581.07 228.01 577.81 224.44
  Q 576.35 222.84 576.63 219.81
  A 1.35 1.18 -63.7 0 0 576.39 218.91
  Q 574.86 216.92 572.81 215.44
  Q 571.76 214.67 571.89 212.56
  A 1.41 1.37 -61.7 0 0 571.63 211.66
  Q 569.94 209.34 569.50 206.56
  A 1.56 1.47 -72.4 0 0 569.09 205.71
  Q 567.07 203.61 565.99 200.89
  Q 564.92 198.17 563.15 195.84
  Q 561.32 193.45 560.75 190.49
  Q 560.43 188.84 559.78 190.39
  Q 558.07 194.48 557.78 199.00
  A 0.88 0.79 -12.2 0 1 557.28 199.69
  Q 555.38 200.58 556.27 202.55
  A 1.90 1.08 49.7 0 1 556.45 203.50
  Q 556.07 206.10 553.48 206.88
  A 0.88 0.82 58.2 0 1 552.64 206.65
  Q 548.40 202.43 546.56 197.94
  Q 545.46 195.23 544.54 193.90
  A 0.81 0.61 -50.0 0 1 544.58 193.13
  Q 544.88 192.63 544.31 192.19
  Q 541.67 190.15 541.14 186.91
  Q 540.79 184.79 542.16 183.49
  Q 543.65 182.08 545.93 182.05
  A 1.07 0.97 69.2 0 1 546.73 182.46
  Q 549.33 185.75 553.25 185.08
  A 1.35 1.34 68.7 0 1 554.59 185.67
  Q 556.50 188.54 558.55 187.72
  A 0.35 0.32 55.8 0 0 558.63 187.16
  Q 556.37 184.93 555.70 179.67
  A 2.00 1.93 17.1 0 0 554.99 178.38
  Q 551.67 175.63 550.55 171.38
  Q 549.32 166.68 544.92 163.67
  A 1.72 1.71 36.1 0 1 544.53 161.21
  Q 545.06 160.52 544.75 159.39
  Q 544.57 158.74 543.90 157.87
  Q 539.33 152.02 538.81 149.94
  Q 537.98 146.59 536.50 145.00
  Q 534.95 143.32 535.02 145.38
  Q 535.03 145.75 535.36 146.42
  Q 535.65 147.05 535.56 147.70
  A 1.49 0.82 -27.4 0 1 535.03 148.49
  Q 533.32 149.89 534.43 151.89
  A 1.41 0.58 53.2 0 1 534.67 152.81
  L 534.26 154.61
  A 1.66 0.56 -69.0 0 0 534.22 155.54
  Q 535.51 159.71 532.32 162.61
  A 1.98 1.21 6.7 0 1 531.45 163.01
  Q 530.08 163.31 529.14 164.39
  Q 527.42 166.36 524.97 166.03
  A 2.69 2.68 26.1 0 0 522.70 166.80
  Q 519.33 170.19 515.63 172.08
  Q 513.40 173.23 511.00 171.50
  Q 509.56 170.46 506.79 169.80
  A 0.94 0.86 85.5 0 1 506.17 169.22
  Z
  M 100.06 225.84
  Q 100.59 225.22 101.25 224.00
  Q 106.76 213.89 116.19 198.44
  Q 122.47 188.17 126.48 181.30
  Q 132.49 170.99 138.50 160.69
  A 1.60 0.53 -21.3 0 1 139.22 160.09
  Q 139.46 159.95 139.59 159.72
  A 0.58 0.47 29.5 0 0 139.31 159.01
  Q 131.81 154.81 124.59 150.15
  Q 122.60 148.86 120.26 148.17
  A 0.44 0.44 8.0 0 0 119.70 148.59
  Q 119.66 151.57 120.00 153.80
  Q 121.07 160.77 121.78 167.78
  Q 122.04 170.28 121.41 172.15
  Q 120.70 174.29 119.52 176.21
  Q 116.74 180.73 116.68 180.86
  Q 114.11 185.66 111.13 190.21
  Q 110.72 190.83 110.27 192.05
  Q 109.92 193.02 109.31 193.85
  A 0.83 0.83 -67.3 0 1 108.51 194.18
  Q 104.55 193.55 101.56 190.90
  A 1.95 1.68 -15.0 0 0 100.69 190.48
  Q 98.36 190.03 97.08 188.12
  Q 96.81 187.72 96.37 187.48
  L 86.70 182.26
  A 0.78 0.75 -61.4 0 1 86.41 181.21
  Q 86.94 180.21 86.77 179.03
  Q 86.47 176.95 86.47 176.94
  Q 86.35 173.32 86.02 167.47
  Q 85.99 166.94 86.01 166.40
  Q 86.16 162.90 84.53 165.59
  Q 82.35 169.16 80.64 172.98
  Q 80.45 173.41 80.04 173.74
  Q 79.09 174.47 78.69 175.19
  Q 77.28 177.66 73.65 184.68
  Q 73.10 185.75 72.09 186.66
  Q 70.57 188.03 70.41 188.61
  Q 69.70 191.17 68.31 193.42
  Q 65.18 198.51 62.60 202.83
  Q 62.57 202.88 61.15 204.95
  Q 59.74 207.01 59.48 209.56
  A 0.34 0.33 84.6 0 0 59.91 209.93
  Q 60.78 209.66 61.50 209.09
  Q 62.92 207.98 63.29 207.78
  Q 68.34 205.06 74.75 202.16
  A 2.03 2.02 50.5 0 1 76.76 202.36
  Q 83.91 207.46 94.25 212.66
  A 1.38 1.31 12.7 0 1 95.00 213.78
  L 95.92 231.06
  A 0.76 0.52 89.7 0 0 96.40 231.75
  Q 96.82 231.80 97.01 231.26
  Q 97.85 228.95 99.17 226.90
  Q 99.21 226.84 100.06 225.84
  Z
  M 46.66 292.94
  Q 48.17 291.36 49.76 289.59
  Q 50.88 288.34 50.73 290.01
  Q 50.63 291.05 51.51 291.60
  Q 52.23 292.05 52.32 292.12
  Q 61.44 299.48 69.55 307.95
  Q 70.93 309.40 72.64 310.44
  A 1.71 1.70 2.7 0 1 73.29 311.15
  Q 76.78 318.22 81.19 324.66
  Q 81.64 325.31 81.75 324.52
  L 82.91 316.24
  Q 82.94 316.08 82.74 315.32
  L 82.53 314.57
  A 1.12 0.53 -40.0 0 1 82.92 313.72
  Q 84.18 312.41 83.75 311.00
  Q 82.93 308.30 83.42 306.27
  Q 83.81 304.66 83.82 304.57
  Q 85.04 296.69 86.24 288.81
  Q 86.29 288.42 86.63 287.93
  Q 87.14 287.18 86.77 286.42
  A 0.42 0.39 -34.2 0 0 86.13 286.33
  Q 81.16 290.78 76.97 296.04
  A 0.75 0.75 -54.5 0 1 75.99 296.21
  Q 73.26 294.52 73.57 292.76
  Q 75.57 281.61 76.96 270.36
  Q 76.96 270.29 77.01 269.65
  Q 77.12 267.77 79.21 268.24
  A 3.17 3.15 -7.5 0 1 81.32 269.85
  Q 84.40 275.61 85.90 281.73
  Q 86.44 283.91 87.26 282.48
  Q 87.49 282.09 87.58 281.46
  Q 89.46 268.85 91.62 256.29
  Q 92.31 252.30 92.70 246.14
  Q 93.02 241.03 93.84 235.98
  Q 93.91 235.55 93.88 234.02
  Q 93.86 232.83 94.55 232.09
  Q 95.93 230.63 94.07 231.38
  Q 93.01 231.81 92.23 232.49
  Q 91.69 232.96 91.10 234.22
  Q 89.81 236.95 87.24 238.56
  A 1.74 1.73 -2.8 0 0 86.60 239.26
  Q 84.59 243.40 80.25 245.50
  Q 76.90 247.12 70.90 250.37
  Q 70.50 250.59 62.91 254.23
  Q 58.90 256.16 55.27 258.84
  A 0.72 0.72 -26.0 0 1 54.14 258.45
  Q 52.73 253.45 49.15 249.50
  Q 48.23 248.48 48.02 249.84
  Q 44.95 269.29 41.68 288.99
  Q 41.16 292.11 41.51 295.36
  A 1.29 1.29 75.4 0 0 43.30 296.41
  Q 44.28 295.99 45.15 294.82
  Q 46.22 293.39 46.66 292.94
  Z
  M 551.24 278.88
  Q 547.94 275.71 546.01 271.14
  Q 545.70 270.40 545.20 270.08
  Q 544.61 269.70 543.94 269.53
  A 0.44 0.43 -81.7 0 0 543.41 269.93
  Q 543.32 271.72 543.42 273.51
  Q 543.43 273.55 544.08 276.78
  Q 544.38 278.24 544.31 280.31
  Q 544.24 282.40 544.58 289.56
  Q 544.73 292.69 545.33 298.79
  Q 546.44 309.96 546.08 321.20
  A 0.71 0.56 -84.1 0 0 546.52 321.89
  Q 547.14 322.02 547.44 321.19
  Q 548.09 319.35 549.09 318.06
  Q 550.83 315.85 551.13 315.26
  Q 551.87 313.80 552.55 312.31
  Q 552.68 312.03 552.97 310.47
  Q 553.17 309.41 554.13 308.80
  Q 554.57 308.52 554.78 308.12
  Q 555.68 306.44 557.31 305.49
  A 0.63 0.56 54.5 0 1 558.06 305.66
  Q 559.55 307.45 561.38 305.85
  A 1.59 1.26 -62.2 0 1 562.24 305.47
  L 576.00 304.54
  A 1.12 0.92 62.9 0 1 576.81 304.89
  Q 578.01 306.20 579.81 304.81
  Q 582.30 302.90 582.00 306.75
  Q 581.73 310.13 583.01 313.26
  A 1.14 1.14 74.1 0 1 582.15 314.81
  Q 580.87 315.03 580.44 316.55
  Q 579.57 319.61 577.60 322.12
  Q 575.21 325.16 572.94 328.29
  Q 572.06 329.50 571.89 330.38
  Q 571.46 332.64 574.50 332.00
  Q 576.93 331.49 579.29 330.67
  A 0.73 0.65 58.6 0 1 580.05 330.90
  Q 581.18 332.18 582.63 331.10
  Q 584.84 329.46 588.44 329.85
  Q 590.26 330.05 590.54 328.24
  Q 591.10 324.51 590.57 320.64
  Q 590.45 319.76 590.57 316.85
  Q 590.67 314.49 589.42 311.63
  Q 588.56 309.65 589.61 307.78
  Q 590.20 306.73 589.30 305.40
  A 1.21 1.13 35.5 0 1 589.12 304.51
  Q 589.75 301.63 588.44 298.65
  A 0.85 0.84 -23.7 0 1 588.88 297.53
  Q 590.43 296.89 589.19 295.56
  Q 587.17 293.40 588.25 290.75
  Q 589.09 288.69 588.66 286.60
  Q 588.24 284.62 588.20 284.24
  Q 588.07 283.03 587.88 281.84
  Q 587.65 280.41 587.74 278.26
  Q 587.88 274.91 586.52 271.77
  A 0.47 0.45 -22.8 0 1 586.78 271.16
  Q 588.16 270.61 587.70 269.33
  Q 587.09 267.65 587.07 267.56
  Q 586.25 262.89 586.81 257.68
  Q 587.06 255.35 584.73 255.57
  Q 579.53 256.06 574.24 255.74
  Q 572.03 255.60 569.94 256.53
  A 0.91 0.91 -31.8 0 1 568.87 256.28
  Q 567.06 254.11 567.00 256.75
  Q 566.95 259.24 570.19 261.31
  Q 572.40 262.72 575.88 266.83
  Q 579.07 270.59 579.79 273.17
  Q 580.76 276.66 579.79 280.92
  A 0.72 0.70 -85.4 0 1 579.16 281.47
  Q 576.30 281.69 574.19 282.94
  Q 572.80 283.76 573.00 282.25
  Q 573.12 281.36 572.51 281.28
  Q 572.17 281.24 571.71 281.59
  Q 570.33 282.65 569.50 282.75
  Q 566.83 283.06 558.25 283.23
  Q 558.13 283.23 555.82 283.63
  Q 553.92 283.96 553.41 281.81
  A 1.37 0.62 -53.1 0 1 553.61 280.92
  Q 553.93 280.33 553.09 280.03
  Q 552.04 279.65 551.24 278.88
  Z
  M 457.16 560.92
  Q 472.37 546.48 487.12 533.29
  Q 488.98 531.63 486.51 532.00
  L 462.06 535.67
  A 1.84 1.83 -25.6 0 1 460.43 535.10
  L 434.33 506.62
  Q 433.97 506.23 434.45 506.44
  L 488.89 529.94
  A 1.79 1.72 -53.6 0 0 490.77 529.62
  L 502.45 519.18
  A 1.89 1.78 -31.6 0 0 502.98 517.20
  Q 492.61 488.52 482.19 459.81
  Q 481.95 459.16 482.24 459.04
  A 0.88 0.42 51.0 0 1 482.98 459.39
  L 510.33 488.99
  A 1.58 1.54 30.6 0 1 510.71 490.39
  L 505.00 515.27
  Q 504.68 516.64 505.71 515.69
  L 562.88 462.75
  Q 563.60 462.09 562.64 462.27
  L 536.62 467.08
  A 1.52 1.45 -26.9 0 1 535.30 466.68
  Q 522.85 454.12 511.65 441.32
  A 0.97 0.93 32.8 0 1 511.44 440.45
  L 518.19 414.92
  Q 518.70 413.01 517.25 414.35
  L 464.47 463.09
  A 1.42 1.41 58.5 0 0 464.11 464.62
  L 474.75 493.68
  Q 475.05 494.50 474.25 494.16
  L 446.36 482.29
  A 2.58 2.56 35.1 0 0 443.60 482.76
  L 395.16 527.33
  Q 394.30 528.13 395.46 527.91
  L 422.44 522.85
  A 1.54 1.50 63.1 0 1 423.85 523.33
  L 446.45 547.82
  A 2.53 2.40 -59.7 0 1 446.99 550.12
  L 440.27 575.75
  Q 440.13 576.30 440.56 575.93
  Q 449.53 568.17 457.16 560.92
  Z
  M 201.45 528.92
  Q 209.25 518.60 216.94 508.19
  A 0.72 0.71 22.0 0 0 216.45 507.06
  L 203.90 505.32
  Q 201.95 505.05 201.07 503.19
  Q 197.32 495.28 191.70 488.58
  Q 174.13 467.62 149.60 456.64
  Q 139.17 451.98 131.17 450.04
  Q 121.57 447.71 111.51 448.15
  Q 105.04 448.43 100.19 450.19
  Q 81.19 457.06 82.89 477.74
  Q 83.49 485.06 86.69 492.31
  Q 91.35 502.87 98.35 511.17
  Q 119.60 536.37 149.76 549.73
  Q 155.62 552.32 162.00 553.99
  A 2.69 2.49 82.0 0 1 163.64 555.33
  L 170.98 569.58
  A 0.91 0.89 -40.3 0 0 172.50 569.69
  L 185.55 552.28
  A 0.94 0.93 -69.1 0 1 186.37 551.91
  L 215.60 554.01
  Q 218.11 554.19 216.11 552.68
  L 145.30 499.18
  Q 143.58 497.88 144.39 499.88
  Q 149.58 512.63 154.99 525.49
  Q 155.03 525.59 155.98 527.59
  Q 158.65 533.19 151.50 533.00
  Q 147.50 532.90 143.13 530.72
  Q 140.26 529.30 135.82 526.27
  Q 129.18 521.75 123.83 515.67
  Q 111.34 501.48 122.69 486.19
  Q 127.88 479.19 134.58 475.75
  Q 138.80 473.58 143.24 473.44
  Q 147.85 473.29 152.32 474.93
  Q 159.15 477.43 164.80 481.76
  Q 169.17 485.10 175.04 491.44
  Q 191.12 508.84 197.46 532.78
  Q 197.67 533.59 198.21 532.94
  Q 200.26 530.48 201.45 528.92
  Z
  M 349.31 559.31
  Q 354.73 554.01 361.77 547.78
  Q 366.17 543.89 371.46 540.71
  Q 380.45 535.30 389.51 529.99
  Q 391.21 529.00 389.24 529.00
  L 319.18 529.00
  Q 316.95 529.00 318.80 530.22
  L 336.45 541.85
  A 0.61 0.58 38.8 0 1 336.57 542.77
  L 315.99 563.51
  A 0.62 0.61 -46.0 0 1 315.14 563.53
  L 294.17 544.52
  A 0.66 0.66 -41.8 0 1 294.23 543.49
  Q 302.34 537.63 309.19 532.19
  Q 310.51 531.13 313.24 529.67
  Q 313.70 529.43 313.19 529.34
  Q 311.05 529.01 306.00 529.00
  Q 262.41 528.95 218.80 529.06
  Q 216.96 529.07 218.58 529.95
  Q 230.24 536.27 241.89 542.65
  Q 244.09 543.86 247.31 546.94
  Q 264.51 563.38 281.45 580.10
  Q 283.65 582.27 284.12 584.43
  Q 284.83 587.65 283.75 590.75
  Q 283.08 592.63 280.94 594.09
  Q 268.20 602.81 254.67 611.05
  Q 253.12 612.00 254.94 612.00
  L 354.01 612.00
  Q 355.97 612.00 354.33 610.95
  L 327.25 593.59
  A 2.64 2.45 17.4 0 1 326.05 591.49
  L 326.00 582.50
  A 1.16 1.10 -23.3 0 1 326.36 581.66
  Q 332.65 575.64 349.31 559.31
  Z"
/>
<path fill="#f9e401" d="
  M 475.52 314.12
  Q 477.63 317.40 476.70 313.62
  Q 473.94 302.48 469.81 292.94
  Q 465.60 283.20 462.37 278.19
  Q 458.15 271.63 453.59 265.31
  Q 452.70 264.07 451.32 263.36
  Q 450.40 262.89 449.49 262.42
  Q 448.71 262.02 447.78 261.27
  Q 444.09 258.31 439.00 257.75
  Q 436.43 257.47 434.11 255.63
  Q 426.94 249.92 418.81 245.69
  Q 415.96 244.21 411.93 239.58
  Q 409.95 237.31 408.44 236.68
  Q 406.97 236.07 405.33 235.97
  Q 403.15 235.85 402.21 235.65
  Q 395.37 234.17 384.25 233.50
  Q 378.52 233.15 376.07 233.97
  Q 372.44 235.19 368.69 235.96
  Q 365.92 236.52 365.13 237.19
  Q 363.35 238.67 364.65 241.64
  Q 365.42 243.38 364.75 245.17
  Q 362.69 250.69 362.28 257.24
  A 1.18 1.18 -65.1 0 0 362.60 258.12
  Q 365.38 261.00 367.19 261.56
  Q 371.65 262.94 379.90 263.21
  Q 379.98 263.21 383.56 263.63
  Q 387.18 264.06 390.05 261.56
  Q 391.61 260.20 393.17 261.55
  Q 397.81 265.54 399.05 271.54
  Q 400.90 280.55 399.68 289.78
  A 1.06 1.03 -81.8 0 1 398.51 290.69
  L 389.25 289.34
  A 2.07 1.49 30.5 0 0 388.28 289.43
  Q 384.20 291.09 379.69 294.94
  Q 377.37 296.91 374.32 295.61
  Q 373.09 295.09 373.01 295.06
  Q 366.97 292.94 360.81 295.06
  Q 356.87 296.41 353.31 298.56
  Q 349.47 300.90 347.39 303.43
  Q 345.20 306.12 344.45 306.40
  Q 342.36 307.20 339.78 305.29
  A 1.40 1.39 -44.8 0 1 339.80 303.04
  L 342.69 300.94
  Q 343.94 300.02 342.19 300.06
  Q 341.06 300.09 341.66 298.67
  Q 342.07 297.69 341.02 297.85
  Q 337.80 298.32 335.80 297.43
  Q 334.06 296.65 335.83 295.96
  Q 338.19 295.03 339.68 292.73
  A 0.34 0.33 21.3 0 0 339.45 292.22
  Q 335.48 291.44 334.25 291.00
  Q 330.20 289.55 330.92 284.99
  Q 331.48 281.51 330.19 278.31
  Q 328.69 274.60 328.94 271.75
  A 1.44 0.56 -77.4 0 0 328.79 270.79
  L 326.88 268.32
  Q 326.46 267.77 326.40 267.52
  L 325.05 261.35
  A 1.08 1.07 80.0 0 1 325.96 260.04
  Q 332.55 259.17 337.78 255.60
  Q 338.21 255.30 337.70 255.19
  Q 334.83 254.57 331.98 255.51
  Q 329.74 256.25 331.32 254.50
  L 344.85 239.56
  A 1.06 0.81 -35.1 0 0 345.12 238.70
  Q 344.84 237.66 343.66 238.66
  Q 340.18 241.60 336.55 244.11
  Q 334.15 245.77 335.58 243.22
  Q 344.43 227.50 347.90 210.25
  A 1.42 1.11 -60.5 0 0 347.76 209.30
  Q 347.05 208.19 346.33 209.50
  Q 345.89 210.30 345.69 210.56
  Q 341.38 216.33 337.19 222.19
  Q 335.98 223.88 333.07 226.36
  A 0.76 0.43 -40.8 0 1 332.22 226.53
  Q 332.02 226.29 332.43 225.72
  Q 333.38 224.41 333.00 222.73
  Q 332.67 221.32 332.10 222.65
  Q 330.20 227.07 327.53 231.33
  Q 321.17 241.47 314.06 251.36
  Q 313.09 252.72 311.00 252.99
  L 305.32 253.73
  A 2.20 1.82 -18.2 0 1 303.32 252.95
  Q 301.00 249.45 299.25 245.65
  Q 293.11 232.27 287.07 218.85
  Q 286.92 218.53 286.73 218.32
  Q 285.85 217.36 286.24 219.20
  Q 287.27 224.14 288.79 228.96
  A 0.78 0.50 70.3 0 1 288.60 229.80
  Q 288.16 230.02 287.56 229.19
  Q 279.96 218.61 274.90 206.58
  Q 274.72 206.15 274.45 206.11
  A 0.62 0.40 -86.8 0 0 273.99 206.74
  Q 273.66 226.39 281.85 244.18
  A 0.56 0.37 62.1 0 1 281.79 244.79
  Q 281.59 244.92 281.31 244.69
  Q 279.04 242.80 276.27 239.69
  A 1.22 0.77 60.1 0 0 275.45 239.26
  Q 274.73 239.29 275.06 240.19
  Q 276.58 244.21 280.07 247.92
  Q 283.77 251.87 287.03 255.87
  Q 287.45 256.39 286.78 256.46
  Q 283.66 256.82 281.30 256.17
  Q 280.62 255.98 280.19 255.99
  Q 278.13 256.02 279.81 257.44
  Q 282.48 259.68 290.21 262.16
  A 0.39 0.39 24.2 0 1 290.43 262.73
  Q 289.32 264.56 289.06 265.81
  Q 287.09 275.30 284.15 284.52
  Q 284.01 284.98 284.10 285.49
  Q 285.54 292.98 276.81 294.12
  A 0.85 0.85 71.8 0 0 276.18 295.37
  Q 278.91 300.35 272.44 298.43
  Q 271.49 298.15 271.78 299.10
  Q 272.49 301.45 274.37 303.17
  A 1.63 1.16 23.4 0 1 274.86 303.98
  Q 275.30 306.28 272.98 305.86
  A 1.27 1.06 74.2 0 1 272.22 305.34
  Q 265.46 295.56 253.88 295.19
  Q 251.22 295.10 247.74 296.16
  Q 244.74 297.07 241.74 298.00
  A 1.80 1.80 62.4 0 1 239.77 297.38
  Q 237.75 294.76 234.90 293.34
  Q 232.69 292.23 228.91 292.01
  Q 225.76 291.82 221.89 291.81
  A 1.05 1.05 -5.4 0 1 220.87 290.97
  Q 219.99 286.85 219.56 282.51
  Q 219.08 277.66 220.15 274.07
  Q 221.68 268.91 225.18 264.63
  A 0.33 0.31 52.4 0 1 225.71 264.71
  Q 227.86 269.19 232.34 267.41
  Q 234.14 266.70 234.21 266.68
  Q 242.47 263.96 250.92 263.76
  Q 253.40 263.70 254.43 261.45
  Q 257.55 254.67 256.28 245.68
  Q 256.12 244.57 256.51 243.52
  Q 259.14 236.48 251.52 235.15
  Q 244.49 233.93 237.40 234.27
  Q 235.15 234.38 231.13 234.04
  Q 228.23 233.79 225.36 234.23
  Q 222.91 234.60 220.05 236.18
  Q 203.98 245.10 191.75 255.75
  Q 190.13 257.16 188.96 258.00
  Q 187.74 258.87 185.70 259.36
  Q 181.72 260.32 178.21 261.09
  Q 175.74 261.64 173.95 263.43
  Q 169.48 267.88 165.58 272.79
  Q 162.27 276.94 158.61 283.21
  Q 152.80 293.17 147.45 303.39
  Q 145.48 307.16 146.06 311.44
  Q 146.26 312.91 146.75 311.50
  Q 147.82 308.39 150.31 306.29
  Q 157.45 300.26 163.98 296.91
  Q 166.97 295.37 165.74 298.50
  Q 160.32 312.27 160.00 325.76
  Q 159.95 327.70 161.11 329.25
  Q 164.82 334.24 169.97 337.76
  Q 171.40 338.73 173.31 338.93
  Q 174.87 339.08 176.44 339.26
  A 1.22 1.17 -15.7 0 1 177.26 339.70
  Q 178.28 341.02 180.81 344.94
  Q 182.93 348.21 187.01 351.05
  Q 189.92 353.08 194.80 354.61
  Q 205.35 357.93 208.00 358.50
  Q 212.26 359.42 223.44 360.27
  A 0.63 0.63 88.3 0 1 224.01 360.81
  Q 225.88 372.77 230.62 383.92
  Q 232.89 389.27 237.69 392.56
  Q 238.79 393.32 240.93 395.49
  Q 241.29 395.86 243.81 398.76
  Q 245.51 400.72 247.51 402.36
  Q 250.11 404.48 250.84 405.77
  Q 251.66 407.20 252.05 408.83
  Q 252.57 411.05 252.92 411.94
  Q 254.99 417.22 256.44 422.71
  A 1.64 1.45 15.7 0 0 256.95 423.50
  Q 259.19 425.37 260.00 428.26
  Q 260.52 430.10 259.05 431.32
  Q 256.77 433.21 255.75 436.00
  Q 254.02 440.74 253.59 444.93
  Q 253.42 446.56 254.10 448.06
  Q 255.51 451.18 254.28 453.35
  Q 252.91 455.77 252.83 456.04
  Q 251.12 461.51 250.50 467.21
  A 1.27 1.27 14.1 0 1 248.76 468.25
  Q 189.05 444.20 159.81 386.94
  Q 149.42 366.58 145.03 342.64
  Q 143.24 332.86 142.64 322.78
  Q 139.58 271.56 165.02 227.52
  Q 170.08 218.75 176.02 210.84
  Q 200.16 178.69 236.56 161.06
  Q 268.94 145.39 305.00 144.28
  Q 314.96 143.97 324.98 144.89
  Q 369.92 148.98 407.00 175.00
  Q 436.46 195.67 454.94 227.06
  Q 474.90 260.98 477.60 301.51
  Q 478.26 311.48 477.62 321.49
  Q 474.43 371.16 445.50 411.24
  Q 439.58 419.44 432.79 426.66
  Q 404.10 457.13 363.78 470.99
  A 1.49 1.49 -17.2 0 1 361.86 469.98
  Q 359.82 462.55 358.17 454.66
  Q 357.45 451.24 357.73 447.41
  Q 358.35 438.87 358.00 435.25
  Q 357.80 433.11 355.01 430.24
  Q 351.58 426.68 353.67 422.11
  Q 356.82 415.26 358.00 410.50
  Q 358.73 407.53 359.54 405.30
  Q 360.36 403.02 362.47 400.90
  Q 374.11 389.18 379.06 383.56
  Q 383.56 378.46 386.10 371.52
  Q 387.43 367.86 388.40 365.75
  Q 389.70 362.91 390.84 360.00
  Q 392.70 355.25 398.00 356.75
  Q 400.16 357.36 402.58 356.88
  Q 403.98 356.60 406.90 355.60
  Q 413.96 353.17 418.88 347.51
  Q 419.53 346.76 420.45 346.42
  Q 427.38 343.86 432.61 340.70
  Q 434.45 339.59 438.32 336.12
  Q 441.31 333.42 444.31 331.81
  Q 452.14 327.61 459.70 322.93
  A 2.78 2.75 -15.4 0 0 461.01 320.66
  Q 461.30 309.88 458.00 299.23
  Q 457.41 297.34 459.08 298.40
  Q 469.75 305.19 475.52 314.12
  Z"
/>
<path fill="#f9e401" d="
  M 297.44 268.10
  Q 293.93 268.36 295.69 266.72
  Q 296.22 266.22 296.95 266.07
  Q 299.50 265.53 301.90 266.77
  Q 304.45 268.10 306.95 269.57
  Q 308.29 270.36 306.81 270.81
  Q 304.97 271.38 303.22 270.56
  Q 300.80 269.42 298.39 268.28
  Q 297.95 268.07 297.44 268.10
  Z"
/>
<path fill="#f9e401" d="
  M 318.88 266.59
  Q 322.61 269.57 318.72 268.62
  A 1.88 1.78 42.2 0 0 317.76 268.64
  Q 314.88 269.51 312.12 270.72
  Q 311.34 271.06 310.83 271.04
  Q 309.80 271.00 309.92 270.10
  Q 309.98 269.62 310.46 269.18
  Q 312.78 267.06 316.39 266.08
  A 2.81 2.79 56.4 0 1 318.88 266.59
  Z"
/>
<path fill="#f9e401" d="
  M 56.96 280.13
  Q 55.21 279.37 57.69 278.94
  Q 58.79 278.74 62.40 276.38
  Q 65.55 274.31 69.20 273.42
  A 0.34 0.34 -1.2 0 1 69.61 273.81
  L 67.00 287.52
  Q 66.71 289.03 65.71 287.82
  Q 64.60 286.46 63.28 285.23
  Q 62.85 284.84 60.37 283.21
  Q 58.84 282.21 57.72 280.72
  Q 57.44 280.33 56.96 280.13
  Z"
/>
<path fill="#f9e401" d="
  M 302.48 287.52
  Q 300.14 288.48 297.81 287.44
  Q 295.36 286.34 297.75 286.00
  Q 307.82 284.58 318.41 285.02
  Q 321.54 285.14 319.30 287.33
  Q 315.73 290.82 311.28 292.17
  Q 308.61 292.98 306.20 292.30
  Q 303.86 291.64 301.45 290.08
  Q 300.35 289.38 301.60 289.02
  Q 302.97 288.62 303.02 287.80
  A 0.39 0.33 -12.3 0 0 302.48 287.52
  Z"
/>
</svg>
