<?xml version="1.0" encoding="UTF-8" standalone="no"?>
<!DOCTYPE svg PUBLIC "-//W3C//DTD SVG 1.1//EN" "http://www.w3.org/Graphics/SVG/1.1/DTD/svg11.dtd">
<svg xmlns="http://www.w3.org/2000/svg" version="1.1" viewBox="0 0 500 500">
<g stroke-width="2.00" fill="none" stroke-linecap="butt">
<path stroke="#9fcfa2" vector-effect="non-scaling-stroke" d="
  M 111.21 140.75
  Q 118.41 170.68 131.94 199.81
  Q 133.08 202.28 131.25 204.71"
/>
<path stroke="#9acda1" vector-effect="non-scaling-stroke" d="
  M 131.25 204.71
  L 127.04 214.50"
/>
<path stroke="#96cba0" vector-effect="non-scaling-stroke" d="
  M 127.04 214.50
  Q 123.27 224.42 121.11 234.74"
/>
<path stroke="#8fc79f" vector-effect="non-scaling-stroke" d="
  M 121.11 234.74
  Q 116.70 254.93 118.76 275.43
  A 0.63 0.60 89.9 0 0 119.30 275.99
  Q 137.01 277.90 154.50 281.21"
/>
<path stroke="#96cba0" vector-effect="non-scaling-stroke" d="
  M 154.50 281.21
  Q 169.15 284.33 183.46 288.75"
/>
<path stroke="#9acda1" vector-effect="non-scaling-stroke" d="
  M 183.46 288.75
  L 199.25 294.21"
/>
<path stroke="#9fcfa2" vector-effect="non-scaling-stroke" d="
  M 199.25 294.21
  Q 215.67 300.65 231.21 309.00"
/>
<path stroke="#a4d1a4" vector-effect="non-scaling-stroke" d="
  M 231.21 309.00
  L 251.77 321.66
  Q 252.23 321.94 252.24 321.44
  L 252.46 312.50"
/>
<path stroke="#a8d3a4" vector-effect="non-scaling-stroke" d="
  M 252.46 312.50
  C 253.19 300.94 251.06 284.08 243.08 275.12
  A 1.36 1.35 73.1 0 0 242.26 274.68
  C 235.14 273.68 228.42 273.81 220.75 271.79"
/>
<path stroke="#a4d1a4" vector-effect="non-scaling-stroke" d="
  M 220.75 271.79
  Q 210.86 269.50 201.75 265.04"
/>
<path stroke="#9fcfa2" vector-effect="non-scaling-stroke" d="
  M 201.75 265.04
  C 158.26 244.41 135.00 192.11 122.46 148.75"
/>
<path stroke="#a8d3a4" vector-effect="non-scaling-stroke" d="
  M 122.46 148.75
  L 116.22 121.32
  A 0.49 0.47 -4.8 0 1 116.73 120.75
  L 121.55 120.99"
/>
<path stroke="#b3d9a7" vector-effect="non-scaling-stroke" d="
  M 121.55 120.99
  Q 151.62 122.00 179.75 132.79"
/>
<path stroke="#bfdeaa" vector-effect="non-scaling-stroke" d="
  M 179.75 132.79
  Q 237.82 157.72 252.46 219.50"
/>
<path stroke="#b6daa8" vector-effect="non-scaling-stroke" d="
  M 252.46 219.50
  L 254.68 233.89
  Q 255.00 235.96 253.82 234.20
  C 241.97 216.58 224.18 200.64 202.94 195.85
  Q 202.43 195.74 202.87 196.02
  C 232.01 214.59 250.38 246.69 260.88 278.89
  Q 261.11 279.62 261.18 278.86
  C 261.94 269.76 266.16 260.86 270.54 253.00"
/>
<path stroke="#bfdeaa" vector-effect="non-scaling-stroke" d="
  M 270.54 253.00
  Q 281.91 232.94 296.31 213.90
  Q 296.85 213.19 296.09 213.65
  C 283.10 221.48 273.06 233.53 266.04 246.25"
/>
<path stroke="#b6daa8" vector-effect="non-scaling-stroke" d="
  M 266.04 246.25
  L 265.11 247.92
  Q 264.57 248.88 264.50 247.76
  Q 263.94 239.26 264.75 230.79"
/>
<path stroke="#bfdeaa" vector-effect="non-scaling-stroke" d="
  M 264.75 230.79
  Q 266.11 221.08 269.25 211.79"
/>
<path stroke="#c3e1ab" vector-effect="non-scaling-stroke" d="
  M 269.25 211.79
  Q 272.50 203.51 277.18 196.34"
/>
<path stroke="#c9e4ac" vector-effect="non-scaling-stroke" d="
  M 277.18 196.34
  Q 281.95 189.50 288.26 183.62"
/>
<path stroke="#cee6ad" vector-effect="non-scaling-stroke" d="
  M 288.26 183.62
  L 296.59 176.45"
/>
<path stroke="#d3e8ae" vector-effect="non-scaling-stroke" d="
  M 296.59 176.45
  L 309.68 168.16"
/>
<path stroke="#d9ebb0" vector-effect="non-scaling-stroke" d="
  M 309.68 168.16
  L 323.75 161.96"
/>
<path stroke="#dcedb0" vector-effect="non-scaling-stroke" d="
  M 323.75 161.96
  L 336.75 157.96"
/>
<path stroke="#e2f0b2" vector-effect="non-scaling-stroke" d="
  M 336.75 157.96
  Q 346.53 155.03 357.70 153.83
  A 0.47 0.46 82.2 0 1 358.21 154.22
  Q 360.53 169.45 356.13 183.83"
/>
<path stroke="#dcedb0" vector-effect="non-scaling-stroke" d="
  M 356.13 183.83
  Q 352.73 193.29 347.96 201.50"
/>
<path stroke="#d6eaaf" vector-effect="non-scaling-stroke" d="
  M 347.96 201.50
  L 337.71 216.50"
/>
<path stroke="#d0e7ae" vector-effect="non-scaling-stroke" d="
  M 337.71 216.50
  L 326.00 229.46"
/>
<path stroke="#cbe4ac" vector-effect="non-scaling-stroke" d="
  M 326.00 229.46
  L 315.20 240.06"
/>
<path stroke="#c5e2ab" vector-effect="non-scaling-stroke" d="
  M 315.20 240.06
  L 302.50 250.96"
/>
<path stroke="#bfdeaa" vector-effect="non-scaling-stroke" d="
  M 302.50 250.96
  L 291.15 260.55"
/>
<path stroke="#b9dca8" vector-effect="non-scaling-stroke" d="
  M 291.15 260.55
  Q 282.21 268.36 275.75 278.71"
/>
<path stroke="#b0d7a6" vector-effect="non-scaling-stroke" d="
  M 275.75 278.71
  Q 263.00 297.53 260.69 320.82
  Q 260.60 321.76 261.38 321.23
  Q 277.17 310.47 294.17 302.54"
/>
<path stroke="#b9dca8" vector-effect="non-scaling-stroke" d="
  M 294.17 302.54
  Q 305.13 296.96 316.09 293.33"
/>
<path stroke="#bfdeaa" vector-effect="non-scaling-stroke" d="
  M 316.09 293.33
  L 331.00 288.21"
/>
<path stroke="#c5e2ab" vector-effect="non-scaling-stroke" d="
  M 331.00 288.21
  L 348.25 283.46"
/>
<path stroke="#cbe4ac" vector-effect="non-scaling-stroke" d="
  M 348.25 283.46
  L 364.25 280.21"
/>
<path stroke="#d0e7ae" vector-effect="non-scaling-stroke" d="
  M 364.25 280.21
  L 384.20 277.00"
/>
<path stroke="#d6eaaf" vector-effect="non-scaling-stroke" d="
  M 384.20 277.00
  L 393.51 276.00
  A 0.55 0.52 -2.5 0 0 394.00 275.49
  L 394.21 262.00"
/>
<path stroke="#dcedb0" vector-effect="non-scaling-stroke" d="
  M 394.21 262.00
  Q 394.48 242.55 388.71 224.00"
/>
<path stroke="#e2f0b2" vector-effect="non-scaling-stroke" d="
  M 388.71 224.00
  Q 381.75 200.18 366.80 180.40
  A 1.17 1.14 -58.8 0 1 366.59 179.50
  Q 369.65 162.75 365.52 144.92
  A 0.92 0.91 81.4 0 0 364.57 144.21
  Q 348.92 145.21 334.29 149.00"
/>
<path stroke="#dcedb0" vector-effect="non-scaling-stroke" d="
  M 334.29 149.00
  Q 321.51 140.49 307.25 134.79"
/>
<path stroke="#d9ebb0" vector-effect="non-scaling-stroke" d="
  M 307.25 134.79
  Q 294.62 129.74 281.25 127.29"
/>
<path stroke="#d3e8ae" vector-effect="non-scaling-stroke" d="
  M 281.25 127.29
  Q 270.34 125.32 259.25 125.29"
/>
<path stroke="#cee6ad" vector-effect="non-scaling-stroke" d="
  M 259.25 125.29
  L 243.86 125.68"
/>
<path stroke="#c9e4ac" vector-effect="non-scaling-stroke" d="
  M 243.86 125.68
  Q 234.82 126.19 225.30 128.78"
/>
<path stroke="#c3e1ab" vector-effect="non-scaling-stroke" d="
  M 225.30 128.78
  Q 217.14 130.05 208.50 133.71"
/>
<path stroke="#bfdeaa" vector-effect="non-scaling-stroke" d="
  M 208.50 133.71
  L 205.31 134.94
  A 2.19 1.68 -35.9 0 1 203.59 134.89
  Q 189.46 126.70 174.72 121.76"
/>
<path stroke="#b3d9a7" vector-effect="non-scaling-stroke" d="
  M 174.72 121.76
  Q 147.30 112.62 118.25 112.29"
/>
<path stroke="#a8d3a4" vector-effect="non-scaling-stroke" d="
  M 118.25 112.29
  L 106.69 112.04
  A 0.80 0.76 86.4 0 0 105.93 112.95
  Q 107.85 127.27 111.21 140.75"
/>
<path stroke="#5cad4c" vector-effect="non-scaling-stroke" d="
  M 118.25 112.29
  Q 118.17 113.00 117.57 113.15
  A 0.44 0.37 -16.9 0 0 117.24 113.66
  Q 118.78 117.56 121.55 120.99"
/>
<path stroke="#48a347" vector-effect="non-scaling-stroke" d="
  M 122.46 148.75
  L 121.53 149.01
  A 0.79 0.67 -25.4 0 1 120.75 148.80
  C 118.07 145.44 114.77 140.16 111.47 137.61
  Q 111.10 137.33 111.33 137.74
  Q 112.16 139.29 111.21 140.75"
/>
<path stroke="#72b851" vector-effect="non-scaling-stroke" d="
  M 174.72 121.76
  Q 175.66 126.30 178.94 129.56
  Q 179.53 130.15 179.76 131.70
  A 1.09 0.76 23.6 0 0 180.11 132.27
  Q 180.54 132.65 179.75 132.79"
/>
<path stroke="#43a147" vector-effect="non-scaling-stroke" d="
  M 201.75 265.04
  L 201.01 266.23
  A 0.84 0.65 45.1 0 0 201.12 267.09
  Q 212.25 281.49 223.46 295.82
  Q 228.37 302.09 231.69 307.31
  Q 232.27 308.23 231.21 309.00"
/>
<path stroke="#3a9c44" vector-effect="non-scaling-stroke" d="
  M 199.25 294.21
  Q 200.15 292.91 199.07 292.72
  A 0.94 0.74 -2.5 0 1 198.39 292.23
  C 197.40 289.72 195.23 287.91 194.01 286.13
  C 190.48 280.98 185.37 274.98 182.60 271.36
  Q 156.97 238.00 131.25 204.71"
/>
<path stroke="#83c055" vector-effect="non-scaling-stroke" d="
  M 208.50 133.71
  Q 208.60 135.43 210.44 137.81
  Q 229.25 162.25 248.02 186.72
  Q 248.58 187.46 249.44 187.56
  A 0.52 0.49 3.3 0 1 249.90 188.05
  Q 249.90 189.03 250.47 189.78
  Q 257.95 199.50 265.45 209.19
  C 266.62 210.69 266.85 212.16 269.25 211.79"
/>
<path stroke="#75b952" vector-effect="non-scaling-stroke" d="
  M 264.75 230.79
  Q 264.31 231.76 263.56 231.77
  A 1.16 0.74 64.1 0 1 262.76 231.28
  C 261.40 229.45 256.56 221.94 254.50 221.96
  A 0.44 0.42 1.8 0 1 254.06 221.51
  Q 254.17 219.69 252.46 219.50"
/>
<path stroke="#4da549" vector-effect="non-scaling-stroke" d="
  M 220.75 271.79
  Q 219.89 273.53 221.01 274.72
  Q 221.95 275.72 221.99 275.77
  Q 235.47 293.96 249.60 311.66
  Q 250.67 312.99 252.46 312.50"
/>
<path stroke="#319842" vector-effect="non-scaling-stroke" d="
  M 183.46 288.75
  C 183.56 287.41 181.19 287.79 182.32 287.12
  A 0.65 0.56 -20.9 0 0 182.64 286.53
  Q 182.47 285.43 182.19 285.06
  Q 174.75 275.48 167.34 265.87
  C 164.76 262.53 162.43 259.65 160.09 256.42
  C 158.91 254.79 157.11 253.12 156.38 250.72
  A 1.16 1.10 5.7 0 0 155.79 250.04
  C 153.39 248.85 152.35 246.17 151.06 244.66
  C 148.84 242.06 146.99 238.99 144.88 236.51
  Q 141.27 232.27 138.07 227.72
  C 135.51 224.07 131.43 220.05 129.02 215.46
  Q 128.36 214.21 127.04 214.50"
/>
<path stroke="#75b952" vector-effect="non-scaling-stroke" d="
  M 266.04 246.25
  Q 267.05 249.24 269.64 250.82
  A 0.97 0.80 -78.5 0 1 270.04 251.57
  Q 270.09 252.34 270.54 253.00"
/>
<path stroke="#269340" vector-effect="non-scaling-stroke" d="
  M 154.50 281.21
  L 155.30 279.30
  A 0.97 0.77 40.6 0 0 155.13 278.42
  C 144.62 264.67 133.74 251.14 123.55 237.16
  Q 123.29 236.81 122.79 236.56
  Q 121.67 236.00 121.11 234.74"
/>
<path stroke="#8dc558" vector-effect="non-scaling-stroke" d="
  M 277.18 196.34
  Q 250.79 162.91 225.30 128.78"
/>
<path stroke="#a2cf5c" vector-effect="non-scaling-stroke" d="
  M 259.25 125.29
  Q 258.12 125.32 257.40 125.95
  A 0.60 0.54 51.0 0 0 257.36 126.72
  C 259.86 130.04 279.01 156.18 280.69 156.34
  A 0.57 0.51 1.5 0 1 281.20 156.82
  C 281.40 159.76 289.34 168.42 289.44 168.56
  Q 293.05 173.70 296.59 176.45"
/>
<path stroke="#98ca5a" vector-effect="non-scaling-stroke" d="
  M 288.26 183.62
  Q 272.53 162.77 256.60 142.16
  Q 250.24 133.94 243.86 125.68"
/>
<path stroke="#acd45f" vector-effect="non-scaling-stroke" d="
  M 281.25 127.29
  Q 280.79 130.03 282.69 132.31
  Q 296.11 148.46 309.68 168.16"
/>
<path stroke="#b6d961" vector-effect="non-scaling-stroke" d="
  M 307.25 134.79
  Q 306.33 134.86 305.98 135.47
  A 1.04 0.74 49.5 0 0 306.06 136.38
  C 309.46 142.13 315.06 148.68 319.58 154.68
  C 321.51 157.23 323.27 158.54 323.75 161.96"
/>
<path stroke="#bfdd63" vector-effect="non-scaling-stroke" d="
  M 334.29 149.00
  C 331.65 151.62 336.54 154.19 336.75 157.96"
/>
<path stroke="#bfdd63" vector-effect="non-scaling-stroke" d="
  M 388.71 224.00
  Q 388.32 224.05 387.96 223.95
  A 0.53 0.45 -71.9 0 1 387.69 223.29
  Q 388.02 222.33 387.28 222.63
  A 0.83 0.82 59.2 0 1 386.32 222.38
  L 356.13 183.83"
/>
<path stroke="#b3d760" vector-effect="non-scaling-stroke" d="
  M 394.21 262.00
  Q 393.51 261.62 393.63 260.73
  A 1.23 0.93 -65.4 0 0 393.44 259.86
  Q 365.21 223.48 358.50 214.50
  Q 352.86 206.95 347.96 201.50"
/>
<path stroke="#a7d25e" vector-effect="non-scaling-stroke" d="
  M 384.20 277.00
  Q 383.29 275.49 382.31 274.19
  Q 360.27 245.14 337.71 216.50"
/>
<path stroke="#9ccc5b" vector-effect="non-scaling-stroke" d="
  M 364.25 280.21
  Q 365.37 278.88 364.50 277.75
  Q 346.18 253.93 327.81 230.15
  A 1.53 0.43 89.0 0 1 327.54 229.25
  Q 327.45 228.50 326.00 229.46"
/>
<path stroke="#91c758" vector-effect="non-scaling-stroke" d="
  M 348.25 283.46
  Q 347.45 282.41 348.22 281.98
  A 0.28 0.25 -41.4 0 0 348.27 281.53
  C 347.40 280.96 347.49 281.22 346.82 280.33
  Q 331.47 259.86 315.20 240.06"
/>
<path stroke="#85c156" vector-effect="non-scaling-stroke" d="
  M 331.00 288.21
  L 302.50 250.96"
/>
<path stroke="#78bb53" vector-effect="non-scaling-stroke" d="
  M 316.09 293.33
  Q 313.98 290.73 303.81 277.69
  Q 295.86 267.49 291.15 260.55"
/>
<path stroke="#6ab44f" vector-effect="non-scaling-stroke" d="
  M 294.17 302.54
  L 275.75 278.71"
/>
<path stroke="#8fc79f" vector-effect="non-scaling-stroke" d="
  M 168.21 328.75
  Q 184.79 334.65 200.25 343.04"
/>
<path stroke="#94c9a0" vector-effect="non-scaling-stroke" d="
  M 200.25 343.04
  Q 212.84 350.01 224.25 358.79"
/>
<path stroke="#98cca1" vector-effect="non-scaling-stroke" d="
  M 224.25 358.79
  Q 246.79 376.62 262.16 400.88
  A 1.03 0.98 74.6 0 0 262.94 401.35
  Q 270.02 401.81 277.98 399.69"
/>
<path stroke="#9ccea2" vector-effect="non-scaling-stroke" d="
  M 277.98 399.69
  Q 281.57 399.94 287.15 397.93"
/>
<path stroke="#a0d0a3" vector-effect="non-scaling-stroke" d="
  M 287.15 397.93
  Q 293.88 397.13 301.21 394.37
  A 0.44 0.43 64.6 0 0 301.43 393.74
  C 286.01 366.94 262.59 343.80 236.29 327.50"
/>
<path stroke="#9ccea2" vector-effect="non-scaling-stroke" d="
  M 236.29 327.50
  Q 227.27 321.82 217.75 317.04"
/>
<path stroke="#98cca1" vector-effect="non-scaling-stroke" d="
  M 217.75 317.04
  Q 201.29 308.62 183.75 302.79"
/>
<path stroke="#94c9a0" vector-effect="non-scaling-stroke" d="
  M 183.75 302.79
  L 169.75 298.54"
/>
<path stroke="#8fc79f" vector-effect="non-scaling-stroke" d="
  M 169.75 298.54
  Q 157.64 295.16 145.25 293.04"
/>
<path stroke="#88c49d" vector-effect="non-scaling-stroke" d="
  M 145.25 293.04
  Q 133.36 290.77 121.32 289.61
  A 0.39 0.38 -2.2 0 0 120.90 290.05
  Q 123.44 304.59 129.72 318.70
  A 1.07 1.07 -6.9 0 0 130.51 319.32
  Q 150.17 322.87 168.21 328.75"
/>
<path stroke="#188c3d" vector-effect="non-scaling-stroke" d="
  M 145.25 293.04
  Q 143.57 293.22 144.25 293.62
  A 0.50 0.47 26.6 0 1 144.47 294.23
  C 143.77 295.85 145.33 296.64 146.08 297.58
  C 147.96 299.93 156.18 309.63 156.31 311.95
  A 0.51 0.48 -1.2 0 0 156.81 312.40
  C 158.08 312.42 165.39 322.82 166.90 324.49
  Q 168.48 326.24 168.21 328.75"
/>
<path stroke="#24913f" vector-effect="non-scaling-stroke" d="
  M 169.75 298.54
  Q 169.68 299.77 170.71 299.49
  Q 171.10 299.39 170.90 299.73
  Q 170.16 301.00 171.06 302.19
  Q 180.56 314.75 200.06 339.94
  Q 201.38 341.64 200.25 343.04"
/>
<path stroke="#2d9641" vector-effect="non-scaling-stroke" d="
  M 183.75 302.79
  Q 181.95 305.57 183.84 307.63
  C 185.43 309.36 186.13 310.63 187.42 312.13
  A 1.32 0.69 -5.8 0 0 188.25 312.46
  L 189.33 312.56
  A 1.31 0.76 63.8 0 1 190.12 313.09
  Q 201.19 327.42 212.35 341.68
  Q 217.03 347.67 221.87 354.93
  Q 222.25 355.50 222.86 355.83
  Q 223.66 356.26 223.48 356.55
  A 0.76 0.30 -55.5 0 0 223.32 357.24
  Q 223.53 357.48 223.82 357.60
  A 1.21 0.25 18.4 0 1 224.63 358.07
  Q 224.89 358.54 224.25 358.79"
/>
<path stroke="#359a43" vector-effect="non-scaling-stroke" d="
  M 217.75 317.04
  Q 216.34 317.08 215.59 318.02
  A 0.67 0.60 45.0 0 0 215.64 318.82
  Q 218.52 322.22 226.25 332.25
  Q 267.45 385.72 277.98 399.69"
/>
<path stroke="#3d9e45" vector-effect="non-scaling-stroke" d="
  M 236.29 327.50
  L 236.02 328.25
  A 0.46 0.37 -71.0 0 1 235.53 328.56
  C 234.44 328.20 234.41 328.95 234.92 329.61
  Q 261.18 363.63 287.15 397.93"
/>
<path stroke="#c5e2ab" vector-effect="non-scaling-stroke" d="
  M 359.01 294.92
  Q 350.66 296.30 341.96 299.00"
/>
<path stroke="#bfdeaa" vector-effect="non-scaling-stroke" d="
  M 341.96 299.00
  L 323.25 304.79"
/>
<path stroke="#b9dca8" vector-effect="non-scaling-stroke" d="
  M 323.25 304.79
  L 308.00 310.96"
/>
<path stroke="#b3d9a7" vector-effect="non-scaling-stroke" d="
  M 308.00 310.96
  L 294.75 317.21"
/>
<path stroke="#acd5a5" vector-effect="non-scaling-stroke" d="
  M 294.75 317.21
  Q 280.88 324.13 268.15 332.97
  A 0.40 0.39 48.1 0 0 268.13 333.59
  Q 280.15 344.34 291.22 356.08
  A 0.56 0.55 -40.1 0 0 291.96 356.14
  Q 301.79 348.81 312.60 342.73"
/>
<path stroke="#b3d9a7" vector-effect="non-scaling-stroke" d="
  M 312.60 342.73
  L 327.75 335.46"
/>
<path stroke="#b9dca8" vector-effect="non-scaling-stroke" d="
  M 327.75 335.46
  L 341.35 329.84"
/>
<path stroke="#bfdeaa" vector-effect="non-scaling-stroke" d="
  M 341.35 329.84
  L 358.75 324.46"
/>
<path stroke="#c5e2ab" vector-effect="non-scaling-stroke" d="
  M 358.75 324.46
  L 376.76 320.17"
/>
<path stroke="#cbe4ac" vector-effect="non-scaling-stroke" d="
  M 376.76 320.17
  L 382.21 319.32
  A 1.04 0.80 -78.5 0 0 382.89 318.73
  Q 388.95 305.15 391.89 290.17
  A 0.39 0.39 3.4 0 0 391.48 289.71
  Q 375.13 291.04 359.01 294.92"
/>
<path stroke="#91c758" vector-effect="non-scaling-stroke" d="
  M 376.76 320.17
  L 359.01 294.92"
/>
<path stroke="#85c156" vector-effect="non-scaling-stroke" d="
  M 358.75 324.46
  C 353.17 316.43 346.25 309.08 341.55 300.51
  A 0.44 0.40 -25.3 0 1 341.79 299.94
  Q 342.41 299.68 341.96 299.00"
/>
<path stroke="#78bb53" vector-effect="non-scaling-stroke" d="
  M 341.35 329.84
  L 323.25 304.79"
/>
<path stroke="#6cb550" vector-effect="non-scaling-stroke" d="
  M 327.75 335.46
  C 327.13 334.71 325.23 336.13 325.99 334.86
  A 0.54 0.50 -48.4 0 0 325.98 334.28
  L 308.00 310.96"
/>
<path stroke="#60af4d" vector-effect="non-scaling-stroke" d="
  M 312.60 342.73
  L 295.31 320.40
  A 1.09 0.84 -61.1 0 1 295.18 319.55
  Q 295.34 318.96 294.98 318.59
  A 0.33 0.30 50.9 0 1 295.01 318.10
  Q 295.68 317.67 294.75 317.21"
/>
<path stroke="#8ac59e" vector-effect="non-scaling-stroke" d="
  M 200.71 390.03
  Q 213.47 395.96 228.16 398.22"
/>
<path stroke="#8fc79f" vector-effect="non-scaling-stroke" d="
  M 228.16 398.22
  Q 236.31 400.79 245.68 401.17
  Q 246.19 401.19 245.90 400.78
  Q 228.88 376.36 203.50 360.71"
/>
<path stroke="#8ac59e" vector-effect="non-scaling-stroke" d="
  M 203.50 360.71
  Q 187.51 350.45 169.75 343.71"
/>
<path stroke="#85c29c" vector-effect="non-scaling-stroke" d="
  M 169.75 343.71
  Q 154.87 338.05 138.37 334.48
  Q 137.86 334.38 138.13 334.82
  Q 161.07 372.32 200.71 390.03"
/>
<path stroke="#10883b" vector-effect="non-scaling-stroke" d="
  M 169.75 343.71
  C 164.90 342.92 166.39 345.69 168.06 347.49
  C 172.50 352.30 175.66 357.77 179.98 362.61
  C 183.43 366.46 186.31 371.00 189.59 375.04
  C 192.14 378.16 194.77 382.60 198.15 385.91
  Q 198.48 386.23 198.62 386.74
  Q 199.14 388.61 200.71 390.03"
/>
<path stroke="#1a8d3d" vector-effect="non-scaling-stroke" d="
  M 203.50 360.71
  Q 202.76 361.16 202.14 360.82
  A 0.39 0.32 23.8 0 0 201.60 360.97
  L 201.37 361.77
  A 1.01 0.95 34.4 0 0 201.56 362.64
  Q 215.35 380.01 228.16 398.22"
/>
<path stroke="#b3d9a7" vector-effect="non-scaling-stroke" d="
  M 333.50 347.71
  Q 324.88 351.33 316.75 355.96"
/>
<path stroke="#acd5a5" vector-effect="non-scaling-stroke" d="
  M 316.75 355.96
  L 300.58 366.30
  A 0.72 0.66 57.2 0 0 300.41 367.27
  L 314.00 388.32
  A 0.58 0.56 61.3 0 0 314.71 388.54
  Q 325.75 383.54 335.10 376.99"
/>
<path stroke="#b3d9a7" vector-effect="non-scaling-stroke" d="
  M 335.10 376.99
  L 347.54 367.00"
/>
<path stroke="#badca9" vector-effect="non-scaling-stroke" d="
  M 347.54 367.00
  Q 363.27 353.59 374.31 334.98
  Q 374.57 334.53 374.07 334.64
  Q 352.75 338.94 333.50 347.71"
/>
<path stroke="#6eb650" vector-effect="non-scaling-stroke" d="
  M 347.54 367.00
  Q 346.21 365.84 342.56 361.19
  Q 338.33 355.78 334.06 350.39
  A 1.18 0.95 -63.5 0 1 333.87 349.52
  Q 334.03 348.54 333.50 347.71"
/>
<path stroke="#60af4d" vector-effect="non-scaling-stroke" d="
  M 335.10 376.99
  Q 325.80 368.23 319.56 358.69
  Q 318.28 356.73 316.75 355.96"
/>
</g>
<path fill="#ffffff" d="
  M 0.00 0.00
  L 500.00 0.00
  L 500.00 500.00
  L 0.00 500.00
  L 0.00 0.00
  Z
  M 111.21 140.75
  Q 118.41 170.68 131.94 199.81
  Q 133.08 202.28 131.25 204.71
  L 127.04 214.50
  Q 123.27 224.42 121.11 234.74
  Q 116.70 254.93 118.76 275.43
  A 0.63 0.60 89.9 0 0 119.30 275.99
  Q 137.01 277.90 154.50 281.21
  Q 169.15 284.33 183.46 288.75
  L 199.25 294.21
  Q 215.67 300.65 231.21 309.00
  L 251.77 321.66
  Q 252.23 321.94 252.24 321.44
  L 252.46 312.50
  C 253.19 300.94 251.06 284.08 243.08 275.12
  A 1.36 1.35 73.1 0 0 242.26 274.68
  C 235.14 273.68 228.42 273.81 220.75 271.79
  Q 210.86 269.50 201.75 265.04
  C 158.26 244.41 135.00 192.11 122.46 148.75
  L 116.22 121.32
  A 0.49 0.47 -4.8 0 1 116.73 120.75
  L 121.55 120.99
  Q 151.62 122.00 179.75 132.79
  Q 237.82 157.72 252.46 219.50
  L 254.68 233.89
  Q 255.00 235.96 253.82 234.20
  C 241.97 216.58 224.18 200.64 202.94 195.85
  Q 202.43 195.74 202.87 196.02
  C 232.01 214.59 250.38 246.69 260.88 278.89
  Q 261.11 279.62 261.18 278.86
  C 261.94 269.76 266.16 260.86 270.54 253.00
  Q 281.91 232.94 296.31 213.90
  Q 296.85 213.19 296.09 213.65
  C 283.10 221.48 273.06 233.53 266.04 246.25
  L 265.11 247.92
  Q 264.57 248.88 264.50 247.76
  Q 263.94 239.26 264.75 230.79
  Q 266.11 221.08 269.25 211.79
  Q 272.50 203.51 277.18 196.34
  Q 281.95 189.50 288.26 183.62
  L 296.59 176.45
  L 309.68 168.16
  L 323.75 161.96
  L 336.75 157.96
  Q 346.53 155.03 357.70 153.83
  A 0.47 0.46 82.2 0 1 358.21 154.22
  Q 360.53 169.45 356.13 183.83
  Q 352.73 193.29 347.96 201.50
  L 337.71 216.50
  L 326.00 229.46
  L 315.20 240.06
  L 302.50 250.96
  L 291.15 260.55
  Q 282.21 268.36 275.75 278.71
  Q 263.00 297.53 260.69 320.82
  Q 260.60 321.76 261.38 321.23
  Q 277.17 310.47 294.17 302.54
  Q 305.13 296.96 316.09 293.33
  L 331.00 288.21
  L 348.25 283.46
  L 364.25 280.21
  L 384.20 277.00
  L 393.51 276.00
  A 0.55 0.52 -2.5 0 0 394.00 275.49
  L 394.21 262.00
  Q 394.48 242.55 388.71 224.00
  Q 381.75 200.18 366.80 180.40
  A 1.17 1.14 -58.8 0 1 366.59 179.50
  Q 369.65 162.75 365.52 144.92
  A 0.92 0.91 81.4 0 0 364.57 144.21
  Q 348.92 145.21 334.29 149.00
  Q 321.51 140.49 307.25 134.79
  Q 294.62 129.74 281.25 127.29
  Q 270.34 125.32 259.25 125.29
  L 243.86 125.68
  Q 234.82 126.19 225.30 128.78
  Q 217.14 130.05 208.50 133.71
  L 205.31 134.94
  A 2.19 1.68 -35.9 0 1 203.59 134.89
  Q 189.46 126.70 174.72 121.76
  Q 147.30 112.62 118.25 112.29
  L 106.69 112.04
  A 0.80 0.76 86.4 0 0 105.93 112.95
  Q 107.85 127.27 111.21 140.75
  Z
  M 168.21 328.75
  Q 184.79 334.65 200.25 343.04
  Q 212.84 350.01 224.25 358.79
  Q 246.79 376.62 262.16 400.88
  A 1.03 0.98 74.6 0 0 262.94 401.35
  Q 270.02 401.81 277.98 399.69
  Q 281.57 399.94 287.15 397.93
  Q 293.88 397.13 301.21 394.37
  A 0.44 0.43 64.6 0 0 301.43 393.74
  C 286.01 366.94 262.59 343.80 236.29 327.50
  Q 227.27 321.82 217.75 317.04
  Q 201.29 308.62 183.75 302.79
  L 169.75 298.54
  Q 157.64 295.16 145.25 293.04
  Q 133.36 290.77 121.32 289.61
  A 0.39 0.38 -2.2 0 0 120.90 290.05
  Q 123.44 304.59 129.72 318.70
  A 1.07 1.07 -6.9 0 0 130.51 319.32
  Q 150.17 322.87 168.21 328.75
  Z
  M 359.01 294.92
  Q 350.66 296.30 341.96 299.00
  L 323.25 304.79
  L 308.00 310.96
  L 294.75 317.21
  Q 280.88 324.13 268.15 332.97
  A 0.40 0.39 48.1 0 0 268.13 333.59
  Q 280.15 344.34 291.22 356.08
  A 0.56 0.55 -40.1 0 0 291.96 356.14
  Q 301.79 348.81 312.60 342.73
  L 327.75 335.46
  L 341.35 329.84
  L 358.75 324.46
  L 376.76 320.17
  L 382.21 319.32
  A 1.04 0.80 -78.5 0 0 382.89 318.73
  Q 388.95 305.15 391.89 290.17
  A 0.39 0.39 3.4 0 0 391.48 289.71
  Q 375.13 291.04 359.01 294.92
  Z
  M 200.71 390.03
  Q 213.47 395.96 228.16 398.22
  Q 236.31 400.79 245.68 401.17
  Q 246.19 401.19 245.90 400.78
  Q 228.88 376.36 203.50 360.71
  Q 187.51 350.45 169.75 343.71
  Q 154.87 338.05 138.37 334.48
  Q 137.86 334.38 138.13 334.82
  Q 161.07 372.32 200.71 390.03
  Z
  M 333.50 347.71
  Q 324.88 351.33 316.75 355.96
  L 300.58 366.30
  A 0.72 0.66 57.2 0 0 300.41 367.27
  L 314.00 388.32
  A 0.58 0.56 61.3 0 0 314.71 388.54
  Q 325.75 383.54 335.10 376.99
  L 347.54 367.00
  Q 363.27 353.59 374.31 334.98
  Q 374.57 334.53 374.07 334.64
  Q 352.75 338.94 333.50 347.71
  Z"
/>
<path fill="#51a749" d="
  M 118.25 112.29
  Q 118.17 113.00 117.57 113.15
  A 0.44 0.37 -16.9 0 0 117.24 113.66
  Q 118.78 117.56 121.55 120.99
  L 116.73 120.75
  A 0.49 0.47 -4.8 0 0 116.22 121.32
  L 122.46 148.75
  L 121.53 149.01
  A 0.79 0.67 -25.4 0 1 120.75 148.80
  C 118.07 145.44 114.77 140.16 111.47 137.61
  Q 111.10 137.33 111.33 137.74
  Q 112.16 139.29 111.21 140.75
  Q 107.85 127.27 105.93 112.95
  A 0.80 0.76 86.4 0 1 106.69 112.04
  L 118.25 112.29
  Z"
/>
<path fill="#66b24e" d="
  M 118.25 112.29
  Q 147.30 112.62 174.72 121.76
  Q 175.66 126.30 178.94 129.56
  Q 179.53 130.15 179.76 131.70
  A 1.09 0.76 23.6 0 0 180.11 132.27
  Q 180.54 132.65 179.75 132.79
  Q 151.62 122.00 121.55 120.99
  Q 118.78 117.56 117.24 113.66
  A 0.44 0.37 -16.9 0 1 117.57 113.15
  Q 118.17 113.00 118.25 112.29
  Z"
/>
<path fill="#7ebd54" d="
  M 174.72 121.76
  Q 189.46 126.70 203.59 134.89
  A 2.19 1.68 -35.9 0 0 205.31 134.94
  L 208.50 133.71
  Q 208.60 135.43 210.44 137.81
  Q 229.25 162.25 248.02 186.72
  Q 248.58 187.46 249.44 187.56
  A 0.52 0.49 3.3 0 1 249.90 188.05
  Q 249.90 189.03 250.47 189.78
  Q 257.95 199.50 265.45 209.19
  C 266.62 210.69 266.85 212.16 269.25 211.79
  Q 266.11 221.08 264.75 230.79
  Q 264.31 231.76 263.56 231.77
  A 1.16 0.74 64.1 0 1 262.76 231.28
  C 261.40 229.45 256.56 221.94 254.50 221.96
  A 0.44 0.42 1.8 0 1 254.06 221.51
  Q 254.17 219.69 252.46 219.50
  Q 237.82 157.72 179.75 132.79
  Q 180.54 132.65 180.11 132.27
  A 1.09 0.76 23.6 0 1 179.76 131.70
  Q 179.53 130.15 178.94 129.56
  Q 175.66 126.30 174.72 121.76
  Z"
/>
<path fill="#9dcc5b" d="
  M 259.25 125.29
  Q 258.12 125.32 257.40 125.95
  A 0.60 0.54 51.0 0 0 257.36 126.72
  C 259.86 130.04 279.01 156.18 280.69 156.34
  A 0.57 0.51 1.5 0 1 281.20 156.82
  C 281.40 159.76 289.34 168.42 289.44 168.56
  Q 293.05 173.70 296.59 176.45
  L 288.26 183.62
  Q 272.53 162.77 256.60 142.16
  Q 250.24 133.94 243.86 125.68
  L 259.25 125.29
  Z"
/>
<path fill="#a6d15d" d="
  M 259.25 125.29
  Q 270.34 125.32 281.25 127.29
  Q 280.79 130.03 282.69 132.31
  Q 296.11 148.46 309.68 168.16
  L 296.59 176.45
  Q 293.05 173.70 289.44 168.56
  C 289.34 168.42 281.40 159.76 281.20 156.82
  A 0.57 0.51 1.5 0 0 280.69 156.34
  C 279.01 156.18 259.86 130.04 257.36 126.72
  A 0.60 0.54 51.0 0 1 257.40 125.95
  Q 258.12 125.32 259.25 125.29
  Z"
/>
<path fill="#93c859" d="
  M 243.86 125.68
  Q 250.24 133.94 256.60 142.16
  Q 272.53 162.77 288.26 183.62
  Q 281.95 189.50 277.18 196.34
  Q 250.79 162.91 225.30 128.78
  Q 234.82 126.19 243.86 125.68
  Z"
/>
<path fill="#b2d760" d="
  M 281.25 127.29
  Q 294.62 129.74 307.25 134.79
  Q 306.33 134.86 305.98 135.47
  A 1.04 0.74 49.5 0 0 306.06 136.38
  C 309.46 142.13 315.06 148.68 319.58 154.68
  C 321.51 157.23 323.27 158.54 323.75 161.96
  L 309.68 168.16
  Q 296.11 148.46 282.69 132.31
  Q 280.79 130.03 281.25 127.29
  Z"
/>
<path fill="#87c256" d="
  M 225.30 128.78
  Q 250.79 162.91 277.18 196.34
  Q 272.50 203.51 269.25 211.79
  C 266.85 212.16 266.62 210.69 265.45 209.19
  Q 257.95 199.50 250.47 189.78
  Q 249.90 189.03 249.90 188.05
  A 0.52 0.49 3.3 0 0 249.44 187.56
  Q 248.58 187.46 248.02 186.72
  Q 229.25 162.25 210.44 137.81
  Q 208.60 135.43 208.50 133.71
  Q 217.14 130.05 225.30 128.78
  Z"
/>
<path fill="#b9da61" d="
  M 307.25 134.79
  Q 321.51 140.49 334.29 149.00
  C 331.65 151.62 336.54 154.19 336.75 157.96
  L 323.75 161.96
  C 323.27 158.54 321.51 157.23 319.58 154.68
  C 315.06 148.68 309.46 142.13 306.06 136.38
  A 1.04 0.74 49.5 0 1 305.98 135.47
  Q 306.33 134.86 307.25 134.79
  Z"
/>
<path fill="#3e9e45" d="
  M 122.46 148.75
  C 135.00 192.11 158.26 244.41 201.75 265.04
  L 201.01 266.23
  A 0.84 0.65 45.1 0 0 201.12 267.09
  Q 212.25 281.49 223.46 295.82
  Q 228.37 302.09 231.69 307.31
  Q 232.27 308.23 231.21 309.00
  Q 215.67 300.65 199.25 294.21
  Q 200.15 292.91 199.07 292.72
  A 0.94 0.74 -2.5 0 1 198.39 292.23
  C 197.40 289.72 195.23 287.91 194.01 286.13
  C 190.48 280.98 185.37 274.98 182.60 271.36
  Q 156.97 238.00 131.25 204.71
  Q 133.08 202.28 131.94 199.81
  Q 118.41 170.68 111.21 140.75
  Q 112.16 139.29 111.33 137.74
  Q 111.10 137.33 111.47 137.61
  C 114.77 140.16 118.07 145.44 120.75 148.80
  A 0.79 0.67 -25.4 0 0 121.53 149.01
  L 122.46 148.75
  Z"
/>
<path fill="#c5e064" d="
  M 388.71 224.00
  Q 388.32 224.05 387.96 223.95
  A 0.53 0.45 -71.9 0 1 387.69 223.29
  Q 388.02 222.33 387.28 222.63
  A 0.83 0.82 59.2 0 1 386.32 222.38
  L 356.13 183.83
  Q 360.53 169.45 358.21 154.22
  A 0.47 0.46 82.2 0 0 357.70 153.83
  Q 346.53 155.03 336.75 157.96
  C 336.54 154.19 331.65 151.62 334.29 149.00
  Q 348.92 145.21 364.57 144.21
  A 0.92 0.91 81.4 0 1 365.52 144.92
  Q 369.65 162.75 366.59 179.50
  A 1.17 1.14 -58.8 0 0 366.80 180.40
  Q 381.75 200.18 388.71 224.00
  Z"
/>
<path fill="#b9da61" d="
  M 388.71 224.00
  Q 394.48 242.55 394.21 262.00
  Q 393.51 261.62 393.63 260.73
  A 1.23 0.93 -65.4 0 0 393.44 259.86
  Q 365.21 223.48 358.50 214.50
  Q 352.86 206.95 347.96 201.50
  Q 352.73 193.29 356.13 183.83
  L 386.32 222.38
  A 0.83 0.82 59.2 0 0 387.28 222.63
  Q 388.02 222.33 387.69 223.29
  A 0.53 0.45 -71.9 0 0 387.96 223.95
  Q 388.32 224.05 388.71 224.00
  Z"
/>
<path fill="#6cb550" d="
  M 252.46 219.50
  Q 254.17 219.69 254.06 221.51
  A 0.44 0.42 1.8 0 0 254.50 221.96
  C 256.56 221.94 261.40 229.45 262.76 231.28
  A 1.16 0.74 64.1 0 0 263.56 231.77
  Q 264.31 231.76 264.75 230.79
  Q 263.94 239.26 264.50 247.76
  Q 264.57 248.88 265.11 247.92
  L 266.04 246.25
  Q 267.05 249.24 269.64 250.82
  A 0.97 0.80 -78.5 0 1 270.04 251.57
  Q 270.09 252.34 270.54 253.00
  C 266.16 260.86 261.94 269.76 261.18 278.86
  Q 261.11 279.62 260.88 278.89
  C 250.38 246.69 232.01 214.59 202.87 196.02
  Q 202.43 195.74 202.94 195.85
  C 224.18 200.64 241.97 216.58 253.82 234.20
  Q 255.00 235.96 254.68 233.89
  L 252.46 219.50
  Z"
/>
<path fill="#add45f" d="
  M 347.96 201.50
  Q 352.86 206.95 358.50 214.50
  Q 365.21 223.48 393.44 259.86
  A 1.23 0.93 -65.4 0 1 393.63 260.73
  Q 393.51 261.62 394.21 262.00
  L 394.00 275.49
  A 0.55 0.52 -2.5 0 1 393.51 276.00
  L 384.20 277.00
  Q 383.29 275.49 382.31 274.19
  Q 360.27 245.14 337.71 216.50
  L 347.96 201.50
  Z"
/>
<path fill="#359a43" d="
  M 131.25 204.71
  Q 156.97 238.00 182.60 271.36
  C 185.37 274.98 190.48 280.98 194.01 286.13
  C 195.23 287.91 197.40 289.72 198.39 292.23
  A 0.94 0.74 -2.5 0 0 199.07 292.72
  Q 200.15 292.91 199.25 294.21
  L 183.46 288.75
  C 183.56 287.41 181.19 287.79 182.32 287.12
  A 0.65 0.56 -20.9 0 0 182.64 286.53
  Q 182.47 285.43 182.19 285.06
  Q 174.75 275.48 167.34 265.87
  C 164.76 262.53 162.43 259.65 160.09 256.42
  C 158.91 254.79 157.11 253.12 156.38 250.72
  A 1.16 1.10 5.7 0 0 155.79 250.04
  C 153.39 248.85 152.35 246.17 151.06 244.66
  C 148.84 242.06 146.99 238.99 144.88 236.51
  Q 141.27 232.27 138.07 227.72
  C 135.51 224.07 131.43 220.05 129.02 215.46
  Q 128.36 214.21 127.04 214.50
  L 131.25 204.71
  Z"
/>
<path fill="#7ebd54" d="
  M 270.54 253.00
  Q 270.09 252.34 270.04 251.57
  A 0.97 0.80 -78.5 0 0 269.64 250.82
  Q 267.05 249.24 266.04 246.25
  C 273.06 233.53 283.10 221.48 296.09 213.65
  Q 296.85 213.19 296.31 213.90
  Q 281.91 232.94 270.54 253.00
  Z"
/>
<path fill="#2d9641" d="
  M 183.46 288.75
  Q 169.15 284.33 154.50 281.21
  L 155.30 279.30
  A 0.97 0.77 40.6 0 0 155.13 278.42
  C 144.62 264.67 133.74 251.14 123.55 237.16
  Q 123.29 236.81 122.79 236.56
  Q 121.67 236.00 121.11 234.74
  Q 123.27 224.42 127.04 214.50
  Q 128.36 214.21 129.02 215.46
  C 131.43 220.05 135.51 224.07 138.07 227.72
  Q 141.27 232.27 144.88 236.51
  C 146.99 238.99 148.84 242.06 151.06 244.66
  C 152.35 246.17 153.39 248.85 155.79 250.04
  A 1.16 1.10 5.7 0 1 156.38 250.72
  C 157.11 253.12 158.91 254.79 160.09 256.42
  C 162.43 259.65 164.76 262.53 167.34 265.87
  Q 174.75 275.48 182.19 285.06
  Q 182.47 285.43 182.64 286.53
  A 0.65 0.56 -20.9 0 1 182.32 287.12
  C 181.19 287.79 183.56 287.41 183.46 288.75
  Z"
/>
<path fill="#a1cf5c" d="
  M 337.71 216.50
  Q 360.27 245.14 382.31 274.19
  Q 383.29 275.49 384.20 277.00
  L 364.25 280.21
  Q 365.37 278.88 364.50 277.75
  Q 346.18 253.93 327.81 230.15
  A 1.53 0.43 89.0 0 1 327.54 229.25
  Q 327.45 228.50 326.00 229.46
  L 337.71 216.50
  Z"
/>
<path fill="#96c959" d="
  M 364.25 280.21
  L 348.25 283.46
  Q 347.45 282.41 348.22 281.98
  A 0.28 0.25 -41.4 0 0 348.27 281.53
  C 347.40 280.96 347.49 281.22 346.82 280.33
  Q 331.47 259.86 315.20 240.06
  L 326.00 229.46
  Q 327.45 228.50 327.54 229.25
  A 1.53 0.43 89.0 0 0 327.81 230.15
  Q 346.18 253.93 364.50 277.75
  Q 365.37 278.88 364.25 280.21
  Z"
/>
<path fill="#1f8f3e" d="
  M 121.11 234.74
  Q 121.67 236.00 122.79 236.56
  Q 123.29 236.81 123.55 237.16
  C 133.74 251.14 144.62 264.67 155.13 278.42
  A 0.97 0.77 40.6 0 1 155.30 279.30
  L 154.50 281.21
  Q 137.01 277.90 119.30 275.99
  A 0.63 0.60 89.9 0 1 118.76 275.43
  Q 116.70 254.93 121.11 234.74
  Z"
/>
<path fill="#8bc457" d="
  M 315.20 240.06
  Q 331.47 259.86 346.82 280.33
  C 347.49 281.22 347.40 280.96 348.27 281.53
  A 0.28 0.25 -41.4 0 1 348.22 281.98
  Q 347.45 282.41 348.25 283.46
  L 331.00 288.21
  L 302.50 250.96
  L 315.20 240.06
  Z"
/>
<path fill="#7ebd54" d="
  M 302.50 250.96
  L 331.00 288.21
  L 316.09 293.33
  Q 313.98 290.73 303.81 277.69
  Q 295.86 267.49 291.15 260.55
  L 302.50 250.96
  Z"
/>
<path fill="#72b851" d="
  M 291.15 260.55
  Q 295.86 267.49 303.81 277.69
  Q 313.98 290.73 316.09 293.33
  Q 305.13 296.96 294.17 302.54
  L 275.75 278.71
  Q 282.21 268.36 291.15 260.55
  Z"
/>
<path fill="#48a348" d="
  M 201.75 265.04
  Q 210.86 269.50 220.75 271.79
  Q 219.89 273.53 221.01 274.72
  Q 221.95 275.72 221.99 275.77
  Q 235.47 293.96 249.60 311.66
  Q 250.67 312.99 252.46 312.50
  L 252.24 321.44
  Q 252.23 321.94 251.77 321.66
  L 231.21 309.00
  Q 232.27 308.23 231.69 307.31
  Q 228.37 302.09 223.46 295.82
  Q 212.25 281.49 201.12 267.09
  A 0.84 0.65 45.1 0 1 201.01 266.23
  L 201.75 265.04
  Z"
/>
<path fill="#51a749" d="
  M 220.75 271.79
  C 228.42 273.81 235.14 273.68 242.26 274.68
  A 1.36 1.35 73.1 0 1 243.08 275.12
  C 251.06 284.08 253.19 300.94 252.46 312.50
  Q 250.67 312.99 249.60 311.66
  Q 235.47 293.96 221.99 275.77
  Q 221.95 275.72 221.01 274.72
  Q 219.89 273.53 220.75 271.79
  Z"
/>
<path fill="#61af4d" d="
  M 275.75 278.71
  L 294.17 302.54
  Q 277.17 310.47 261.38 321.23
  Q 260.60 321.76 260.69 320.82
  Q 263.00 297.53 275.75 278.71
  Z"
/>
<path fill="#11883b" d="
  M 145.25 293.04
  Q 143.57 293.22 144.25 293.62
  A 0.50 0.47 26.6 0 1 144.47 294.23
  C 143.77 295.85 145.33 296.64 146.08 297.58
  C 147.96 299.93 156.18 309.63 156.31 311.95
  A 0.51 0.48 -1.2 0 0 156.81 312.40
  C 158.08 312.42 165.39 322.82 166.90 324.49
  Q 168.48 326.24 168.21 328.75
  Q 150.17 322.87 130.51 319.32
  A 1.07 1.07 -6.9 0 1 129.72 318.70
  Q 123.44 304.59 120.90 290.05
  A 0.39 0.38 -2.2 0 1 121.32 289.61
  Q 133.36 290.77 145.25 293.04
  Z"
/>
<path fill="#96c959" d="
  M 376.76 320.17
  L 359.01 294.92
  Q 375.13 291.04 391.48 289.71
  A 0.39 0.39 3.4 0 1 391.89 290.17
  Q 388.95 305.15 382.89 318.73
  A 1.04 0.80 -78.5 0 1 382.21 319.32
  L 376.76 320.17
  Z"
/>
<path fill="#1f8f3e" d="
  M 145.25 293.04
  Q 157.64 295.16 169.75 298.54
  Q 169.68 299.77 170.71 299.49
  Q 171.10 299.39 170.90 299.73
  Q 170.16 301.00 171.06 302.19
  Q 180.56 314.75 200.06 339.94
  Q 201.38 341.64 200.25 343.04
  Q 184.79 334.65 168.21 328.75
  Q 168.48 326.24 166.90 324.49
  C 165.39 322.82 158.08 312.42 156.81 312.40
  A 0.51 0.48 -1.2 0 1 156.31 311.95
  C 156.18 309.63 147.96 299.93 146.08 297.58
  C 145.33 296.64 143.77 295.85 144.47 294.23
  A 0.50 0.47 26.6 0 0 144.25 293.62
  Q 143.57 293.22 145.25 293.04
  Z"
/>
<path fill="#8bc457" d="
  M 359.01 294.92
  L 376.76 320.17
  L 358.75 324.46
  C 353.17 316.43 346.25 309.08 341.55 300.51
  A 0.44 0.40 -25.3 0 1 341.79 299.94
  Q 342.41 299.68 341.96 299.00
  Q 350.66 296.30 359.01 294.92
  Z"
/>
<path fill="#289340" d="
  M 169.75 298.54
  L 183.75 302.79
  Q 181.95 305.57 183.84 307.63
  C 185.43 309.36 186.13 310.63 187.42 312.13
  A 1.32 0.69 -5.8 0 0 188.25 312.46
  L 189.33 312.56
  A 1.31 0.76 63.8 0 1 190.12 313.09
  Q 201.19 327.42 212.35 341.68
  Q 217.03 347.67 221.87 354.93
  Q 222.25 355.50 222.86 355.83
  Q 223.66 356.26 223.48 356.55
  A 0.76 0.30 -55.5 0 0 223.32 357.24
  Q 223.53 357.48 223.82 357.60
  A 1.21 0.25 18.4 0 1 224.63 358.07
  Q 224.89 358.54 224.25 358.79
  Q 212.84 350.01 200.25 343.04
  Q 201.38 341.64 200.06 339.94
  Q 180.56 314.75 171.06 302.19
  Q 170.16 301.00 170.90 299.73
  Q 171.10 299.39 170.71 299.49
  Q 169.68 299.77 169.75 298.54
  Z"
/>
<path fill="#7ebd54" d="
  M 341.96 299.00
  Q 342.41 299.68 341.79 299.94
  A 0.44 0.40 -25.3 0 0 341.55 300.51
  C 346.25 309.08 353.17 316.43 358.75 324.46
  L 341.35 329.84
  L 323.25 304.79
  L 341.96 299.00
  Z"
/>
<path fill="#319842" d="
  M 183.75 302.79
  Q 201.29 308.62 217.75 317.04
  Q 216.34 317.08 215.59 318.02
  A 0.67 0.60 45.0 0 0 215.64 318.82
  Q 218.52 322.22 226.25 332.25
  Q 267.45 385.72 277.98 399.69
  Q 270.02 401.81 262.94 401.35
  A 1.03 0.98 74.6 0 1 262.16 400.88
  Q 246.79 376.62 224.25 358.79
  Q 224.89 358.54 224.63 358.07
  A 1.21 0.25 18.4 0 0 223.82 357.60
  Q 223.53 357.48 223.32 357.24
  A 0.76 0.30 -55.5 0 1 223.48 356.55
  Q 223.66 356.26 222.86 355.83
  Q 222.25 355.50 221.87 354.93
  Q 217.03 347.67 212.35 341.68
  Q 201.19 327.42 190.12 313.09
  A 1.31 0.76 63.8 0 0 189.33 312.56
  L 188.25 312.46
  A 1.32 0.69 -5.8 0 1 187.42 312.13
  C 186.13 310.63 185.43 309.36 183.84 307.63
  Q 181.95 305.57 183.75 302.79
  Z"
/>
<path fill="#72b851" d="
  M 323.25 304.79
  L 341.35 329.84
  L 327.75 335.46
  C 327.13 334.71 325.23 336.13 325.99 334.86
  A 0.54 0.50 -48.4 0 0 325.98 334.28
  L 308.00 310.96
  L 323.25 304.79
  Z"
/>
<path fill="#66b24e" d="
  M 308.00 310.96
  L 325.98 334.28
  A 0.54 0.50 -48.4 0 1 325.99 334.86
  C 325.23 336.13 327.13 334.71 327.75 335.46
  L 312.60 342.73
  L 295.31 320.40
  A 1.09 0.84 -61.1 0 1 295.18 319.55
  Q 295.34 318.96 294.98 318.59
  A 0.33 0.30 50.9 0 1 295.01 318.10
  Q 295.68 317.67 294.75 317.21
  L 308.00 310.96
  Z"
/>
<path fill="#399c44" d="
  M 217.75 317.04
  Q 227.27 321.82 236.29 327.50
  L 236.02 328.25
  A 0.46 0.37 -71.0 0 1 235.53 328.56
  C 234.44 328.20 234.41 328.95 234.92 329.61
  Q 261.18 363.63 287.15 397.93
  Q 281.57 399.94 277.98 399.69
  Q 267.45 385.72 226.25 332.25
  Q 218.52 322.22 215.64 318.82
  A 0.67 0.60 45.0 0 1 215.59 318.02
  Q 216.34 317.08 217.75 317.04
  Z"
/>
<path fill="#59ab4b" d="
  M 294.75 317.21
  Q 295.68 317.67 295.01 318.10
  A 0.33 0.30 50.9 0 0 294.98 318.59
  Q 295.34 318.96 295.18 319.55
  A 1.09 0.84 -61.1 0 0 295.31 320.40
  L 312.60 342.73
  Q 301.79 348.81 291.96 356.14
  A 0.56 0.55 -40.1 0 1 291.22 356.08
  Q 280.15 344.34 268.13 333.59
  A 0.40 0.39 48.1 0 1 268.15 332.97
  Q 280.88 324.13 294.75 317.21
  Z"
/>
<path fill="#41a046" d="
  M 236.29 327.50
  C 262.59 343.80 286.01 366.94 301.43 393.74
  A 0.44 0.43 64.6 0 1 301.21 394.37
  Q 293.88 397.13 287.15 397.93
  Q 261.18 363.63 234.92 329.61
  C 234.41 328.95 234.44 328.20 235.53 328.56
  A 0.46 0.37 -71.0 0 0 236.02 328.25
  L 236.29 327.50
  Z"
/>
<path fill="#0a8539" d="
  M 169.75 343.71
  C 164.90 342.92 166.39 345.69 168.06 347.49
  C 172.50 352.30 175.66 357.77 179.98 362.61
  C 183.43 366.46 186.31 371.00 189.59 375.04
  C 192.14 378.16 194.77 382.60 198.15 385.91
  Q 198.48 386.23 198.62 386.74
  Q 199.14 388.61 200.71 390.03
  Q 161.07 372.32 138.13 334.82
  Q 137.86 334.38 138.37 334.48
  Q 154.87 338.05 169.75 343.71
  Z"
/>
<path fill="#75b952" d="
  M 347.54 367.00
  Q 346.21 365.84 342.56 361.19
  Q 338.33 355.78 334.06 350.39
  A 1.18 0.95 -63.5 0 1 333.87 349.52
  Q 334.03 348.54 333.50 347.71
  Q 352.75 338.94 374.07 334.64
  Q 374.57 334.53 374.31 334.98
  Q 363.27 353.59 347.54 367.00
  Z"
/>
<path fill="#158a3c" d="
  M 169.75 343.71
  Q 187.51 350.45 203.50 360.71
  Q 202.76 361.16 202.14 360.82
  A 0.39 0.32 23.8 0 0 201.60 360.97
  L 201.37 361.77
  A 1.01 0.95 34.4 0 0 201.56 362.64
  Q 215.35 380.01 228.16 398.22
  Q 213.47 395.96 200.71 390.03
  Q 199.14 388.61 198.62 386.74
  Q 198.48 386.23 198.15 385.91
  C 194.77 382.60 192.14 378.16 189.59 375.04
  C 186.31 371.00 183.43 366.46 179.98 362.61
  C 175.66 357.77 172.50 352.30 168.06 347.49
  C 166.39 345.69 164.90 342.92 169.75 343.71
  Z"
/>
<path fill="#66b24e" d="
  M 333.50 347.71
  Q 334.03 348.54 333.87 349.52
  A 1.18 0.95 -63.5 0 0 334.06 350.39
  Q 338.33 355.78 342.56 361.19
  Q 346.21 365.84 347.54 367.00
  L 335.10 376.99
  Q 325.80 368.23 319.56 358.69
  Q 318.28 356.73 316.75 355.96
  Q 324.88 351.33 333.50 347.71
  Z"
/>
<path fill="#59ab4b" d="
  M 316.75 355.96
  Q 318.28 356.73 319.56 358.69
  Q 325.80 368.23 335.10 376.99
  Q 325.75 383.54 314.71 388.54
  A 0.58 0.56 61.3 0 1 314.00 388.32
  L 300.41 367.27
  A 0.72 0.66 57.2 0 1 300.58 366.30
  L 316.75 355.96
  Z"
/>
<path fill="#1f8f3e" d="
  M 203.50 360.71
  Q 228.88 376.36 245.90 400.78
  Q 246.19 401.19 245.68 401.17
  Q 236.31 400.79 228.16 398.22
  Q 215.35 380.01 201.56 362.64
  A 1.01 0.95 34.4 0 1 201.37 361.77
  L 201.60 360.97
  A 0.39 0.32 23.8 0 1 202.14 360.82
  Q 202.76 361.16 203.50 360.71
  Z"
/>
</svg>
