<?xml version="1.0" encoding="UTF-8" standalone="no"?>
<!DOCTYPE svg PUBLIC "-//W3C//DTD SVG 1.1//EN" "http://www.w3.org/Graphics/SVG/1.1/DTD/svg11.dtd">
<svg xmlns="http://www.w3.org/2000/svg" version="1.1" viewBox="0 0 630 630">
<path fill="#000000" d="
  M 630.00 305.56
  L 630.00 323.56
  Q 626.62 414.65 577.13 489.73
  Q 571.60 498.11 565.54 506.03
  Q 522.45 562.27 460.25 594.50
  Q 395.09 628.26 319.94 630.00
  L 312.69 630.00
  Q 293.71 629.48 282.75 628.25
  Q 181.00 616.82 105.45 549.92
  Q 97.95 543.28 90.95 536.16
  Q 27.67 471.74 7.75 383.50
  Q -5.37 325.36 4.25 265.00
  Q 15.49 194.47 56.98 134.93
  Q 62.64 126.81 68.98 118.94
  Q 134.61 37.50 235.56 10.56
  Q 289.10 -3.72 346.24 1.93
  Q 356.19 2.91 366.07 4.58
  Q 443.67 17.67 506.19 65.04
  Q 514.10 71.03 521.69 77.68
  Q 597.67 144.23 621.50 242.50
  Q 628.52 271.44 630.00 305.56
  Z
  M 282.40 72.72
  Q 281.76 70.81 281.94 68.76
  Q 281.98 68.30 281.79 67.79
  Q 281.25 66.42 282.15 65.36
  A 1.09 0.92 -33.5 0 0 282.40 64.51
  Q 281.94 62.06 282.11 59.61
  Q 282.39 55.70 282.35 54.75
  Q 282.22 51.37 282.03 48.00
  Q 281.87 45.19 283.16 46.39
  A 1.38 1.04 -75.7 0 1 283.52 47.25
  Q 283.70 50.53 285.44 53.56
  Q 288.14 58.28 290.47 64.48
  Q 292.96 71.13 296.50 77.31
  A 1.35 1.02 -58.1 0 1 296.58 78.23
  Q 296.29 79.36 296.97 80.29
  Q 299.24 83.37 303.01 82.50
  Q 304.55 82.14 306.03 82.70
  Q 308.49 83.63 310.69 81.44
  Q 312.20 79.93 313.38 74.99
  Q 313.49 74.54 313.85 74.15
  Q 314.79 73.11 315.25 71.50
  Q 316.38 67.54 318.81 63.31
  Q 320.25 60.82 320.42 57.19
  A 0.62 0.56 -3.9 0 1 320.94 56.65
  Q 322.94 56.35 322.67 53.37
  Q 322.48 51.22 324.06 49.74
  Q 325.55 48.35 326.31 45.31
  Q 326.38 45.05 326.61 45.02
  A 0.37 0.28 86.8 0 1 326.93 45.40
  L 326.69 73.19
  A 0.58 0.57 86.5 0 1 326.20 73.75
  Q 322.41 74.33 319.76 77.01
  Q 317.67 79.13 313.81 81.06
  Q 312.02 81.96 313.15 82.58
  Q 313.57 82.82 314.27 82.79
  Q 329.25 82.18 344.25 82.42
  Q 353.53 82.56 362.70 82.69
  Q 365.08 82.72 363.07 81.44
  Q 357.48 77.90 351.94 74.31
  Q 349.90 72.99 349.56 71.15
  Q 349.26 69.48 349.23 69.39
  Q 348.52 66.87 348.55 64.29
  Q 348.59 60.01 348.55 59.20
  Q 348.35 54.80 349.03 50.27
  Q 349.61 46.50 353.41 46.14
  Q 354.72 46.01 356.32 44.42
  Q 357.75 43.01 358.90 42.38
  Q 360.93 41.28 362.98 40.22
  Q 364.61 39.38 363.15 39.07
  Q 362.80 38.99 362.35 39.09
  Q 361.58 39.25 360.81 39.37
  A 0.76 0.68 69.3 0 1 360.09 39.00
  Q 359.37 37.77 358.13 38.10
  Q 356.53 38.54 356.29 38.55
  Q 350.68 38.82 349.44 38.69
  Q 345.67 38.28 342.05 39.30
  A 0.90 0.86 -29.7 0 1 341.21 39.09
  L 340.79 38.66
  A 1.17 1.12 -22.8 0 0 339.93 38.33
  Q 333.00 38.53 326.07 38.69
  Q 325.99 38.70 321.45 38.42
  Q 318.53 38.24 315.72 39.31
  A 1.10 0.75 -86.5 0 0 315.19 40.00
  L 314.14 43.73
  A 1.51 0.69 -24.6 0 1 313.52 44.45
  Q 312.24 45.35 312.00 46.50
  Q 310.83 52.12 308.17 55.94
  Q 306.64 58.14 305.50 55.52
  L 302.75 49.18
  A 1.74 1.18 47.7 0 1 302.62 48.27
  Q 302.89 46.82 302.09 45.73
  Q 300.81 43.98 300.80 43.96
  Q 300.10 42.51 299.67 40.94
  Q 299.44 40.07 298.99 39.75
  Q 298.38 39.32 297.55 39.37
  A 1.54 1.40 57.3 0 1 296.66 39.13
  Q 295.36 38.31 293.25 38.75
  Q 291.37 39.14 284.25 38.50
  Q 282.33 38.33 279.04 39.51
  A 0.75 0.69 58.3 0 1 278.25 39.29
  L 277.41 38.30
  A 0.90 0.80 -25.7 0 0 276.57 38.06
  Q 271.62 39.23 266.61 38.53
  Q 264.82 38.27 263.41 38.59
  Q 261.81 38.94 260.24 39.37
  A 0.96 0.89 58.0 0 1 259.39 39.14
  Q 257.16 37.08 254.55 39.10
  Q 253.60 39.83 254.79 39.94
  Q 256.32 40.07 257.40 40.96
  Q 259.25 42.46 259.48 42.60
  Q 261.34 43.64 263.19 44.67
  Q 263.95 45.09 265.53 46.66
  Q 266.67 47.79 268.33 48.27
  Q 270.02 48.77 269.91 50.52
  Q 269.29 60.02 269.96 69.94
  Q 269.97 70.01 270.11 71.06
  Q 270.36 72.80 268.74 72.60
  A 1.23 0.95 24.0 0 0 267.87 72.81
  L 260.36 79.04
  Q 259.27 79.95 257.88 80.26
  Q 255.53 80.80 255.59 81.77
  A 0.79 0.57 4.7 0 0 256.25 82.33
  Q 259.51 82.82 262.76 82.62
  Q 267.12 82.35 269.24 82.47
  Q 275.91 82.86 282.58 82.61
  Q 283.00 82.60 287.40 82.87
  Q 289.84 83.02 292.25 82.25
  Q 293.08 81.99 294.80 82.78
  A 1.06 0.65 33.3 0 0 295.72 82.81
  Q 296.00 82.61 296.04 82.25
  A 1.11 0.77 29.1 0 0 295.63 81.42
  Q 292.99 79.15 289.61 78.27
  Q 287.95 77.84 287.94 76.08
  A 1.51 1.31 11.3 0 0 286.95 74.81
  L 283.01 73.40
  A 1.11 0.89 86.8 0 1 282.40 72.72
  Z
  M 383.46 47.24
  Q 387.52 53.59 392.60 59.19
  A 0.87 0.76 -58.5 0 1 392.74 60.02
  L 390.69 66.09
  A 1.55 1.41 -10.6 0 1 390.13 66.83
  Q 389.28 67.44 389.07 68.44
  Q 388.75 69.96 388.73 70.01
  Q 387.26 74.27 386.75 78.77
  A 2.29 2.28 -12.4 0 1 385.67 80.45
  Q 380.51 83.56 374.16 84.55
  Q 372.75 84.77 371.45 85.37
  Q 369.89 86.07 368.35 85.22
  Q 367.66 84.85 367.43 85.21
  A 0.83 0.54 42.2 0 0 367.65 86.06
  Q 369.34 87.82 371.71 88.18
  Q 375.13 88.71 375.69 88.89
  Q 378.84 89.91 382.03 90.80
  Q 382.51 90.93 383.50 90.89
  Q 384.89 90.82 384.68 92.20
  A 0.62 0.54 -76.6 0 0 385.03 92.86
  Q 388.05 93.93 391.25 94.00
  A 1.29 1.20 66.3 0 1 392.09 94.36
  Q 393.52 95.77 395.39 96.01
  Q 398.51 96.40 398.55 96.41
  Q 406.35 98.50 408.69 100.06
  Q 412.29 102.47 414.50 102.25
  Q 418.08 101.89 416.45 100.04
  Q 416.08 99.62 414.75 98.81
  Q 412.68 97.57 411.49 95.45
  A 1.26 0.85 -57.7 0 1 411.46 94.54
  Q 411.78 93.59 411.00 92.98
  Q 408.74 91.24 406.73 89.77
  A 1.37 1.36 30.9 0 1 406.30 88.08
  Q 408.35 83.87 409.30 77.14
  Q 409.40 76.46 409.76 75.89
  Q 411.22 73.61 411.05 70.99
  A 1.63 1.31 63.7 0 1 411.25 70.08
  Q 414.99 63.82 422.44 63.92
  A 1.46 1.37 -61.4 0 0 423.32 63.63
  Q 425.74 61.83 428.75 62.39
  A 2.00 1.32 29.9 0 0 429.72 62.33
  Q 431.99 61.45 429.58 60.87
  Q 428.99 60.73 428.49 60.45
  Q 426.55 59.36 424.40 58.97
  Q 421.47 58.43 420.26 57.93
  Q 416.22 56.26 412.21 54.51
  Q 407.91 52.63 405.25 53.00
  Q 403.40 53.26 402.82 51.87
  A 1.47 1.47 77.1 0 0 401.40 50.98
  Q 397.70 51.17 394.75 49.67
  A 2.03 1.12 73.1 0 1 394.07 49.01
  Q 393.38 47.94 392.25 47.75
  Q 387.03 46.89 383.02 45.14
  A 1.43 1.07 41.0 0 0 382.08 45.07
  Q 380.58 45.59 382.74 46.61
  A 1.85 1.78 -2.7 0 1 383.46 47.24
  Z
  M 501.45 115.70
  L 501.41 113.49
  A 1.44 0.57 -82.5 0 0 501.19 112.61
  Q 498.08 108.66 494.96 104.72
  Q 494.55 104.20 493.31 102.10
  Q 492.50 100.75 491.30 99.70
  Q 482.77 92.24 473.11 86.32
  A 1.67 1.29 -25.6 0 0 472.19 86.12
  Q 471.09 86.19 470.13 85.82
  Q 469.98 85.76 468.53 84.46
  Q 467.82 83.83 466.56 83.44
  Q 456.95 80.46 449.06 80.31
  Q 447.51 80.28 444.90 82.20
  A 1.77 1.56 22.0 0 1 443.99 82.52
  Q 439.66 82.82 437.19 86.19
  Q 433.43 91.30 434.12 97.62
  Q 434.15 97.84 434.33 100.27
  Q 434.48 102.20 435.33 103.93
  Q 436.97 107.28 437.22 111.00
  A 0.87 0.87 11.0 0 0 437.70 111.71
  Q 440.95 113.34 441.50 115.50
  Q 442.52 119.53 443.25 120.25
  Q 446.54 123.48 449.90 126.63
  Q 450.00 126.72 452.76 129.67
  Q 454.48 131.51 456.31 132.19
  Q 458.67 133.06 459.21 134.96
  A 1.29 1.09 -86.3 0 0 459.75 135.69
  Q 467.01 139.83 474.47 143.58
  Q 477.26 144.99 478.68 146.93
  Q 481.07 150.22 482.18 154.21
  A 1.19 0.85 87.3 0 0 482.75 154.94
  Q 483.61 155.27 484.01 154.21
  Q 485.12 151.29 487.47 149.22
  Q 489.61 147.35 491.80 144.76
  A 1.30 1.29 37.3 0 1 493.51 144.53
  Q 496.12 146.30 499.45 145.18
  A 1.39 1.38 -26.5 0 1 501.03 145.70
  Q 502.30 147.49 504.45 146.62
  Q 506.03 145.98 507.69 146.13
  A 0.38 0.34 -4.5 0 0 508.10 145.70
  Q 507.73 144.30 506.06 143.44
  Q 503.51 142.12 501.27 138.35
  A 1.86 1.82 79.4 0 0 500.03 137.48
  Q 496.34 136.78 494.67 133.75
  Q 494.58 133.60 494.02 133.04
  L 490.84 129.86
  Q 490.26 129.28 490.13 129.20
  Q 488.37 128.23 486.94 126.81
  Q 484.44 124.34 480.24 121.85
  Q 479.57 121.46 479.17 120.79
  Q 477.28 117.61 474.27 116.15
  Q 473.91 115.97 473.53 115.54
  L 470.93 112.54
  A 1.36 1.18 -14.7 0 0 470.07 112.12
  Q 468.44 111.99 469.95 113.55
  Q 471.79 115.43 471.44 118.52
  Q 471.36 119.25 471.61 119.90
  L 475.50 130.15
  A 1.15 1.13 56.7 0 1 475.27 131.33
  Q 473.33 133.36 471.56 132.45
  Q 466.49 129.86 461.48 126.68
  A 4.22 4.20 5.0 0 1 459.85 124.75
  Q 459.01 122.73 457.55 121.43
  Q 454.82 119.01 454.70 118.79
  Q 453.79 117.12 453.75 114.50
  Q 453.69 110.35 454.42 107.63
  Q 454.81 106.15 456.56 104.62
  Q 459.23 102.28 460.96 99.13
  A 1.66 1.46 -86.9 0 1 461.63 98.45
  Q 465.00 96.67 467.56 97.44
  Q 469.50 98.02 470.40 97.49
  Q 472.42 96.32 474.45 97.49
  Q 481.49 101.59 485.99 106.84
  Q 486.43 107.35 488.77 109.34
  Q 490.53 110.84 490.93 113.26
  Q 491.02 113.76 491.32 114.14
  Q 495.07 118.70 496.56 124.44
  Q 497.17 126.80 498.75 130.75
  Q 499.29 132.10 498.39 133.31
  Q 498.08 133.71 498.56 133.73
  Q 499.93 133.76 500.69 132.94
  Q 502.65 130.82 511.18 120.64
  A 0.49 0.48 -52.1 0 0 511.10 119.94
  Q 508.26 117.87 504.93 118.46
  A 0.80 0.77 67.2 0 1 504.16 118.13
  Q 503.33 116.96 502.03 116.37
  A 0.95 0.62 16.1 0 1 501.45 115.70
  Z
  M 151.78 99.16
  Q 152.93 98.71 152.94 97.69
  Q 152.95 93.63 154.94 91.19
  Q 155.67 90.29 154.89 89.55
  A 0.61 0.53 -43.6 0 0 154.12 89.59
  Q 146.29 96.50 138.07 102.94
  Q 132.60 107.22 126.58 112.27
  Q 121.00 116.95 115.03 121.50
  Q 112.63 123.33 115.60 122.99
  L 131.88 121.16
  A 1.09 1.05 -12.9 0 1 133.02 121.85
  Q 134.33 125.58 136.58 126.78
  Q 137.37 127.20 138.04 128.07
  L 146.68 139.37
  A 0.70 0.68 43.9 0 1 146.71 140.17
  Q 144.76 143.15 144.74 146.75
  A 1.11 1.04 -21.7 0 1 144.36 147.56
  Q 143.09 148.64 143.00 150.00
  Q 142.81 152.74 141.40 154.44
  A 0.96 0.77 -38.5 0 0 141.20 155.30
  Q 141.64 156.50 142.66 155.10
  A 1.74 1.57 -79.9 0 1 143.41 154.52
  Q 145.83 153.59 147.67 151.85
  Q 150.62 149.06 150.68 149.01
  Q 178.00 127.05 205.20 104.93
  A 1.90 1.90 53.3 0 0 205.57 102.39
  Q 200.60 95.12 194.67 88.32
  Q 193.47 86.95 192.79 85.52
  Q 192.42 84.75 192.19 85.57
  Q 189.50 95.29 187.35 104.48
  Q 187.34 104.54 187.09 105.91
  Q 186.59 108.71 184.06 110.81
  Q 170.00 122.48 166.33 125.38
  A 0.68 0.65 -46.4 0 1 165.53 125.42
  Q 164.87 124.96 164.33 124.37
  Q 163.56 123.52 162.82 123.02
  Q 160.31 121.33 159.00 118.66
  Q 157.79 116.19 157.12 115.52
  Q 155.78 114.19 154.02 113.38
  A 1.09 1.05 -86.7 0 1 153.44 112.70
  Q 152.62 109.86 149.69 107.31
  Q 148.59 106.36 149.75 105.66
  A 1.28 0.69 -21.0 0 0 150.35 104.96
  L 151.30 99.82
  A 0.93 0.74 87.3 0 1 151.78 99.16
  Z
  M 506.11 307.97
  A 197.26 197.26 0.0 0 0 308.85 110.71
  A 197.26 197.26 0.0 0 0 111.59 307.97
  A 197.26 197.26 0.0 0 0 308.85 505.23
  A 197.26 197.26 0.0 0 0 506.11 307.97
  Z
  M 554.89 186.04
  Q 555.26 187.38 557.74 188.15
  Q 559.67 188.76 558.43 187.16
  Q 556.04 184.08 556.00 180.60
  A 3.03 3.01 19.8 0 0 554.93 178.34
  Q 551.90 175.80 550.49 172.03
  Q 548.95 167.93 548.46 167.22
  Q 547.05 165.16 544.84 163.31
  A 1.61 1.60 -58.0 0 1 544.41 161.41
  Q 545.33 159.37 543.62 157.36
  Q 539.69 152.73 537.61 146.59
  A 4.18 4.12 10.7 0 0 536.30 144.70
  Q 534.49 143.22 535.17 145.96
  Q 535.33 146.58 535.53 147.21
  A 0.75 0.71 -29.3 0 1 535.29 147.98
  Q 533.51 149.43 534.50 152.00
  Q 534.98 153.24 534.23 154.81
  A 1.26 1.22 -42.3 0 0 534.17 155.72
  Q 535.36 159.37 532.85 162.06
  Q 532.38 162.57 531.01 163.11
  Q 529.91 163.55 529.19 164.41
  Q 528.12 165.69 526.44 165.74
  Q 523.49 165.83 521.60 167.69
  Q 520.23 169.04 520.17 169.09
  Q 518.34 170.58 516.30 171.79
  Q 513.73 173.30 511.54 172.03
  Q 509.38 170.78 509.30 170.74
  Q 508.03 170.20 506.77 169.64
  A 1.44 1.12 83.7 0 1 506.12 168.97
  Q 505.11 166.82 502.56 166.94
  Q 501.42 166.99 499.42 165.36
  Q 498.94 164.96 498.47 164.84
  Q 496.99 164.48 497.43 165.56
  Q 497.58 165.93 498.12 166.43
  Q 499.37 167.58 499.82 169.15
  Q 500.53 171.64 500.79 172.06
  Q 501.80 173.71 503.30 174.99
  A 1.15 1.07 21.9 0 1 503.69 175.82
  Q 503.68 176.53 503.64 177.23
  Q 503.58 178.25 503.95 179.07
  Q 506.26 184.13 510.32 187.97
  A 0.96 0.90 -64.8 0 1 510.59 188.80
  Q 510.08 191.91 512.47 194.04
  Q 515.17 196.46 516.33 199.80
  Q 516.34 199.83 516.93 202.75
  Q 517.55 205.86 520.26 207.67
  A 0.33 0.33 -69.1 0 0 520.77 207.44
  Q 521.65 202.15 522.46 196.85
  Q 522.88 194.14 524.30 192.78
  Q 526.24 190.94 529.00 190.35
  A 0.87 0.85 62.5 0 1 529.83 190.62
  Q 534.22 195.70 534.56 197.44
  Q 535.34 201.38 538.31 203.99
  A 1.24 0.87 -76.1 0 1 538.63 204.81
  Q 538.64 205.74 539.56 206.69
  Q 541.58 208.76 541.04 211.95
  A 1.16 0.96 -13.5 0 1 540.49 212.68
  L 535.75 215.40
  A 1.62 1.59 -24.6 0 1 533.43 214.56
  Q 532.90 213.01 531.21 212.94
  Q 529.36 212.86 529.30 212.85
  Q 525.81 212.18 522.90 210.11
  Q 522.04 209.50 521.57 210.02
  A 0.93 0.65 59.5 0 0 521.50 210.90
  Q 522.57 213.56 524.08 215.97
  Q 526.29 219.51 526.97 220.84
  Q 531.63 230.00 536.55 239.01
  Q 536.58 239.08 538.16 242.61
  Q 539.18 244.90 541.10 246.65
  Q 544.04 249.35 543.57 253.26
  A 0.67 0.53 -80.0 0 0 543.95 253.96
  Q 544.42 254.08 544.74 253.71
  Q 544.99 253.41 545.04 252.72
  Q 545.53 245.45 545.78 237.12
  A 1.12 1.10 -18.3 0 1 546.21 236.29
  Q 550.30 233.22 554.34 230.77
  Q 554.96 230.39 558.85 228.69
  Q 560.82 227.83 563.25 226.25
  Q 564.71 225.30 566.84 225.23
  Q 568.42 225.17 570.26 226.27
  Q 576.32 229.89 582.76 232.67
  Q 584.40 233.37 583.46 231.85
  Q 581.18 228.15 578.31 224.94
  Q 576.48 222.88 576.43 219.57
  A 1.40 1.10 -71.5 0 0 576.11 218.68
  L 572.93 215.30
  Q 572.56 214.91 572.45 214.45
  Q 571.68 211.18 569.85 208.36
  Q 569.59 207.97 569.54 207.44
  Q 569.44 206.44 568.90 205.63
  Q 567.93 204.19 567.90 204.12
  Q 564.22 196.95 562.94 195.31
  Q 561.33 193.25 560.81 190.69
  Q 560.40 188.61 559.56 190.56
  Q 557.99 194.25 558.00 198.53
  A 1.54 1.53 83.0 0 1 556.84 200.02
  Q 555.60 200.34 555.95 201.54
  Q 556.35 202.93 556.36 203.00
  Q 556.60 205.97 553.49 206.87
  A 0.86 0.84 59.1 0 1 552.65 206.65
  Q 547.28 201.12 544.47 193.89
  Q 543.51 191.42 542.01 189.22
  Q 539.40 185.38 542.92 182.91
  Q 544.99 181.44 546.84 182.46
  Q 546.88 182.48 548.37 183.83
  Q 550.09 185.40 553.10 184.90
  A 1.59 1.59 -12.4 0 1 554.89 186.04
  Z
  M 68.08 193.69
  Q 65.68 197.56 63.43 201.52
  Q 63.29 201.77 61.46 204.45
  Q 60.45 205.93 59.91 207.68
  Q 59.80 208.05 59.51 208.78
  Q 58.88 210.36 60.47 209.86
  A 1.81 1.13 -68.9 0 0 61.23 209.29
  Q 62.05 208.29 63.20 207.77
  Q 65.04 206.95 65.10 206.91
  Q 69.21 204.61 74.45 202.31
  A 2.59 2.56 -39.4 0 1 76.93 202.54
  Q 83.63 207.10 91.22 211.09
  Q 91.30 211.13 92.83 211.77
  Q 95.04 212.69 95.25 215.25
  Q 95.53 218.64 95.94 230.94
  Q 95.96 231.63 96.33 231.68
  A 0.87 0.49 -70.9 0 0 97.00 231.09
  Q 97.79 229.13 98.95 227.38
  Q 101.09 224.14 101.24 223.88
  Q 116.96 196.81 121.31 189.81
  Q 124.91 184.04 126.57 180.53
  Q 127.13 179.36 128.40 177.79
  Q 129.36 176.60 130.19 174.94
  Q 131.32 172.65 137.39 162.75
  Q 137.54 162.50 138.04 161.29
  Q 138.42 160.34 139.22 160.09
  Q 140.34 159.73 139.34 159.11
  Q 130.28 153.49 121.21 148.52
  Q 118.78 147.19 119.59 149.78
  Q 119.74 150.25 119.67 150.74
  Q 119.52 151.89 119.69 153.01
  Q 120.77 159.89 121.66 166.79
  Q 122.09 170.11 121.39 172.16
  Q 120.57 174.53 118.81 177.06
  Q 117.40 179.10 113.40 186.70
  Q 113.33 186.84 111.34 189.67
  Q 110.35 191.08 109.86 193.07
  A 1.16 1.15 9.8 0 1 108.62 193.94
  Q 105.76 193.63 103.93 192.70
  Q 103.76 192.62 102.39 191.43
  Q 101.66 190.80 100.56 190.44
  Q 98.93 189.91 97.50 188.72
  Q 95.71 187.22 94.71 186.69
  Q 90.88 184.67 86.94 182.42
  A 0.93 0.85 -77.2 0 1 86.50 181.65
  L 86.00 164.73
  Q 85.95 163.19 85.18 164.55
  Q 83.29 167.85 81.40 171.42
  Q 81.34 171.53 80.85 172.75
  Q 80.41 173.85 79.38 174.46
  A 1.65 1.31 -9.3 0 0 78.75 175.15
  Q 77.75 177.60 76.26 179.74
  Q 75.48 180.86 74.47 183.18
  Q 73.72 184.89 72.25 186.50
  Q 70.96 187.91 69.98 190.01
  Q 68.76 192.61 68.08 193.69
  Z
  M 76.23 296.50
  Q 74.62 295.75 73.73 294.20
  A 1.59 1.28 -60.1 0 1 73.58 293.26
  L 77.18 269.25
  A 0.85 0.77 87.2 0 1 77.73 268.58
  Q 80.34 267.77 81.69 270.56
  Q 84.19 275.76 86.11 281.59
  Q 87.16 284.77 87.61 281.45
  Q 89.08 270.58 91.17 258.98
  Q 92.73 250.29 93.15 241.48
  Q 93.25 239.38 93.72 236.57
  Q 94.10 234.29 94.33 231.61
  Q 94.37 231.10 93.92 231.36
  Q 91.03 233.01 89.95 235.77
  Q 89.27 237.52 88.87 237.71
  Q 86.94 238.60 85.76 240.36
  Q 83.23 244.14 80.61 245.30
  Q 78.41 246.27 78.37 246.29
  Q 69.12 251.52 59.49 256.02
  Q 58.74 256.36 57.33 257.41
  Q 56.25 258.20 54.99 258.61
  A 0.54 0.53 71.0 0 1 54.33 258.28
  Q 52.45 253.19 49.05 249.19
  Q 48.20 248.19 48.00 249.49
  Q 45.77 264.09 43.45 278.66
  Q 43.44 278.74 42.44 284.32
  Q 41.61 288.90 41.37 293.57
  Q 41.31 294.70 41.91 296.14
  A 0.94 0.91 55.6 0 0 43.43 296.45
  L 49.74 289.69
  A 0.77 0.56 -52.1 0 1 50.54 289.46
  Q 50.97 289.69 51.02 290.24
  A 1.33 0.82 -81.7 0 0 51.38 291.07
  Q 61.60 299.88 71.21 309.35
  Q 73.45 311.56 75.11 314.61
  Q 77.73 319.44 80.70 324.08
  Q 81.92 325.99 82.02 323.72
  Q 82.27 318.58 83.34 313.02
  Q 83.65 311.42 83.50 309.81
  Q 83.32 307.79 83.48 306.69
  Q 84.99 296.59 86.85 286.54
  Q 86.94 286.06 86.52 286.36
  Q 80.86 290.46 76.96 296.27
  A 0.61 0.57 -60.4 0 1 76.23 296.50
  Z
  M 576.94 304.81
  Q 577.12 305.70 581.18 304.38
  A 0.52 0.48 78.1 0 1 581.82 304.83
  L 582.90 313.76
  A 0.80 0.75 71.6 0 1 582.56 314.50
  Q 580.60 315.74 579.50 319.00
  Q 578.64 321.55 575.17 325.38
  Q 573.47 327.24 572.81 328.51
  Q 569.86 334.18 578.00 331.00
  Q 579.76 330.31 580.67 331.12
  A 0.98 0.64 50.5 0 0 581.49 331.38
  L 586.05 329.72
  A 1.28 0.99 -37.1 0 1 586.95 329.73
  Q 589.83 331.06 590.50 328.25
  Q 591.10 325.74 590.59 321.56
  Q 590.21 318.39 590.67 315.24
  A 1.46 1.42 35.1 0 0 590.50 314.33
  Q 589.12 311.87 589.28 309.13
  Q 589.46 305.91 589.46 305.86
  Q 589.33 302.54 588.84 298.36
  A 1.15 1.13 -29.3 0 1 589.09 297.50
  Q 589.93 296.50 589.21 295.05
  Q 588.16 292.93 588.34 290.73
  Q 588.61 287.52 588.52 286.73
  Q 587.80 280.25 587.29 273.75
  A 1.90 1.14 36.5 0 0 586.92 272.86
  Q 586.07 271.70 587.11 270.79
  A 0.91 0.81 -26.7 0 0 587.42 270.01
  Q 586.46 264.19 586.75 256.86
  A 1.22 1.22 -0.4 0 0 585.47 255.60
  Q 580.44 255.89 574.69 255.57
  Q 572.62 255.45 570.08 256.42
  A 1.49 1.48 -28.7 0 1 568.36 255.92
  Q 567.38 254.60 566.95 255.90
  Q 566.78 256.41 566.95 256.97
  Q 567.59 259.09 569.69 260.81
  Q 572.41 263.05 575.52 266.49
  Q 579.01 270.33 579.88 273.25
  Q 581.02 277.07 579.83 281.21
  A 0.64 0.59 9.2 0 1 579.19 281.64
  Q 577.24 281.54 575.43 282.41
  Q 573.63 283.28 572.74 281.93
  A 0.62 0.58 61.6 0 0 572.03 281.69
  Q 571.44 281.93 570.84 282.16
  Q 570.00 282.50 569.10 282.57
  Q 562.02 283.11 554.94 283.53
  A 1.05 0.91 -18.5 0 1 554.10 283.18
  Q 553.38 282.23 553.44 281.00
  A 0.93 0.83 -72.3 0 0 553.09 280.22
  Q 548.27 276.81 546.13 271.31
  Q 545.75 270.32 545.10 269.84
  Q 542.95 268.23 543.16 271.32
  Q 543.32 273.58 543.78 275.77
  Q 544.32 278.34 544.36 280.17
  Q 544.44 284.71 544.56 289.26
  Q 544.65 292.77 545.26 298.33
  Q 545.99 305.01 546.04 311.75
  Q 546.05 313.80 546.61 315.77
  A 1.55 1.52 -42.6 0 1 546.56 316.72
  Q 545.37 319.73 546.00 321.25
  Q 546.69 322.91 547.44 321.19
  Q 548.74 318.19 550.36 316.80
  Q 550.79 316.44 550.94 316.04
  L 553.39 309.79
  Q 553.48 309.57 553.95 308.98
  L 556.37 305.95
  A 1.31 1.15 -44.1 0 1 558.33 305.86
  Q 559.31 307.26 561.10 306.04
  Q 561.55 305.74 562.00 305.68
  Q 569.44 304.72 576.94 304.81
  Z
  M 435.23 506.70
  L 488.63 529.83
  A 2.39 2.26 -53.7 0 0 491.11 529.38
  L 502.01 519.60
  Q 503.42 518.35 502.82 516.70
  L 482.43 460.54
  Q 481.35 457.56 483.49 459.90
  L 510.60 489.44
  A 0.96 0.93 31.7 0 1 510.82 490.30
  L 505.12 514.24
  Q 504.47 516.99 506.54 515.07
  L 562.26 463.49
  Q 564.15 461.74 561.61 462.22
  L 537.11 466.87
  Q 535.45 467.18 534.30 465.94
  Q 525.45 456.43 516.66 447.34
  Q 513.82 444.40 511.56 441.23
  A 1.44 1.39 -55.9 0 1 511.35 440.03
  L 517.77 416.11
  Q 518.62 412.96 516.21 415.18
  L 464.75 462.66
  A 2.12 2.10 -31.7 0 0 464.20 464.93
  L 474.75 493.51
  Q 475.11 494.47 474.17 494.07
  L 446.30 482.18
  A 2.40 2.39 35.1 0 0 443.75 482.62
  L 395.43 526.95
  Q 394.05 528.21 395.90 527.87
  L 422.17 522.97
  A 2.35 2.25 63.0 0 1 424.29 523.71
  L 446.45 547.82
  A 2.45 2.35 -59.5 0 1 446.98 550.06
  L 440.39 575.19
  Q 439.96 576.83 441.21 575.66
  Q 461.52 556.77 481.68 537.68
  Q 484.01 535.47 486.74 533.74
  Q 489.22 532.16 486.62 532.02
  Q 486.09 531.98 485.39 532.11
  Q 474.09 534.08 461.89 535.61
  A 1.77 1.75 -24.7 0 1 460.38 535.06
  L 434.77 507.35
  Q 433.48 505.94 435.23 506.70
  Z
  M 118.47 530.84
  Q 138.08 546.56 162.33 554.29
  A 1.34 1.15 -2.4 0 1 163.07 554.87
  L 170.59 568.97
  Q 171.60 570.87 172.85 569.19
  L 185.40 552.47
  A 1.30 1.26 -68.8 0 1 186.53 551.95
  L 214.65 554.01
  Q 218.50 554.30 215.43 551.99
  L 145.55 499.43
  Q 143.23 497.69 144.38 500.35
  Q 150.11 513.61 155.73 527.10
  Q 155.76 527.17 156.33 528.39
  Q 157.97 531.84 154.25 532.75
  Q 151.05 533.54 147.12 532.28
  Q 143.19 531.03 139.73 528.89
  Q 137.30 527.38 133.07 524.34
  Q 126.11 519.35 121.37 512.26
  Q 118.41 507.83 117.60 504.23
  Q 116.55 499.58 118.06 495.06
  Q 122.35 482.22 134.27 475.88
  Q 137.59 474.11 141.16 473.63
  Q 145.24 473.08 148.50 473.75
  Q 156.93 475.50 164.82 481.93
  Q 189.50 502.05 197.42 532.38
  Q 197.76 533.71 198.59 532.61
  L 216.76 508.48
  Q 217.74 507.18 216.13 506.99
  Q 210.49 506.30 204.73 505.72
  Q 202.08 505.46 200.94 502.56
  Q 199.19 498.13 191.92 489.30
  Q 169.54 462.12 135.90 451.41
  Q 124.73 447.85 113.00 447.97
  Q 110.23 448.00 107.48 448.32
  Q 94.48 449.83 86.56 460.06
  Q 83.05 464.60 82.75 471.33
  Q 82.66 473.30 82.69 476.67
  Q 82.72 479.78 83.25 482.00
  Q 85.92 493.23 92.94 504.06
  Q 97.70 511.42 104.67 518.48
  Q 110.84 524.73 118.47 530.84
  Z
  M 326.98 580.79
  Q 328.63 579.68 330.02 578.28
  Q 346.08 562.19 362.68 546.68
  Q 364.58 544.91 366.80 543.55
  Q 377.79 536.81 388.99 530.44
  Q 389.53 530.14 389.67 529.71
  Q 390.00 528.80 388.69 528.81
  Q 354.09 529.13 319.65 529.00
  Q 316.77 528.99 319.17 530.55
  L 336.15 541.61
  A 1.02 1.00 38.6 0 1 336.34 543.17
  L 316.45 563.18
  A 1.35 1.33 43.4 0 1 314.61 563.22
  L 294.40 544.79
  A 0.87 0.87 47.7 0 1 294.46 543.45
  L 312.36 530.04
  Q 313.75 529.00 312.01 529.00
  Q 268.70 529.00 225.40 529.00
  Q 225.31 529.00 222.62 528.88
  Q 220.64 528.79 218.67 529.19
  Q 217.59 529.41 218.56 529.94
  Q 228.86 535.53 239.16 541.12
  Q 245.54 544.59 251.56 550.94
  Q 257.45 557.15 276.43 574.81
  Q 282.32 580.28 283.44 582.06
  Q 284.89 584.37 284.23 588.14
  Q 284.21 588.27 284.01 590.36
  Q 283.81 592.44 281.92 593.66
  Q 268.26 602.55 254.71 611.02
  Q 253.14 612.00 254.99 612.00
  L 353.37 612.00
  Q 356.29 612.00 353.82 610.42
  L 327.48 593.63
  A 2.87 2.85 -76.6 0 1 326.17 591.48
  Q 325.66 585.59 326.46 581.56
  A 1.25 1.15 -13.4 0 1 326.98 580.79
  Z"
/>
<path fill="#000000" d="
  M 286.46 218.16
  Q 285.87 218.05 286.00 218.75
  Q 286.86 223.49 288.32 228.06
  Q 289.25 230.94 287.38 229.03
  Q 287.09 228.73 286.79 228.29
  Q 280.05 218.33 275.19 207.31
  Q 273.63 203.78 273.75 207.75
  Q 274.08 218.26 276.27 228.55
  Q 277.77 235.60 281.75 243.50
  Q 282.28 244.55 281.56 244.68
  A 1.08 0.64 55.0 0 1 280.74 244.31
  L 276.37 239.74
  Q 273.86 237.11 275.24 240.51
  Q 276.36 243.26 278.17 245.34
  Q 282.54 250.35 286.89 255.53
  A 0.50 0.50 64.5 0 1 286.60 256.35
  Q 283.87 256.84 281.88 256.23
  Q 281.00 255.96 280.57 255.93
  Q 278.41 255.77 279.43 257.02
  Q 279.73 257.39 280.30 257.73
  Q 284.85 260.44 289.95 261.92
  A 0.73 0.56 12.4 0 1 290.49 262.56
  Q 290.46 262.92 290.19 263.23
  Q 289.78 263.71 289.69 264.04
  Q 287.37 273.19 284.86 282.30
  Q 284.42 283.90 284.45 286.78
  Q 284.53 293.91 276.62 294.06
  Q 275.26 294.08 275.99 295.24
  Q 279.35 300.50 273.00 298.50
  Q 271.64 298.07 271.71 299.15
  Q 271.74 299.59 272.19 300.11
  Q 273.92 302.10 274.83 304.53
  A 0.86 0.81 56.1 0 1 274.69 305.39
  Q 273.31 306.98 272.17 305.25
  Q 271.27 303.90 271.20 303.82
  Q 265.06 296.42 255.73 295.23
  Q 252.68 294.84 248.87 295.87
  Q 245.40 296.80 242.19 297.85
  A 2.26 2.25 -31.1 0 1 239.87 297.28
  Q 234.63 291.84 228.16 291.90
  Q 226.22 291.91 224.85 291.79
  Q 223.19 291.65 221.52 291.75
  A 0.67 0.67 -6.9 0 1 220.83 291.21
  Q 220.03 286.82 219.60 282.59
  Q 219.09 277.60 220.17 274.01
  Q 221.71 268.91 225.22 264.65
  A 0.50 0.50 -36.1 0 1 226.07 264.78
  Q 227.24 267.68 229.61 267.92
  Q 230.66 268.02 233.65 266.91
  Q 241.39 264.04 249.25 264.00
  Q 251.57 263.99 253.12 262.82
  Q 254.33 261.91 255.17 259.66
  Q 256.75 255.41 256.79 250.85
  Q 256.79 250.77 256.36 247.19
  Q 256.09 244.99 256.75 242.50
  Q 257.81 238.49 255.15 236.50
  Q 253.67 235.39 249.97 234.88
  Q 243.32 233.97 236.61 234.30
  Q 234.66 234.40 230.93 233.99
  Q 227.71 233.64 224.57 234.36
  Q 222.24 234.90 218.82 236.86
  Q 203.29 245.76 192.81 254.81
  Q 186.52 260.26 179.50 260.75
  Q 177.88 260.86 175.81 262.10
  Q 174.44 262.92 172.82 264.57
  Q 165.94 271.60 162.81 276.31
  Q 156.98 285.11 147.94 302.18
  Q 146.53 304.84 146.19 306.65
  Q 145.75 309.05 146.05 311.55
  Q 146.11 312.12 146.46 312.02
  A 0.93 0.52 -80.8 0 0 146.93 311.43
  Q 147.75 308.78 148.81 307.81
  Q 156.53 300.83 164.70 296.55
  Q 167.00 295.34 166.00 297.74
  Q 160.66 310.59 160.00 324.50
  Q 159.82 328.22 162.31 330.94
  Q 166.04 335.02 170.57 338.20
  Q 172.10 339.26 173.93 338.97
  Q 175.69 338.69 177.06 339.57
  Q 177.88 340.09 178.90 341.90
  Q 181.91 347.22 186.70 350.68
  Q 190.32 353.29 197.14 355.43
  Q 209.82 359.39 223.49 360.28
  A 0.86 0.86 -2.1 0 1 224.28 361.01
  Q 226.18 373.80 230.76 384.28
  Q 232.98 389.34 237.56 392.44
  Q 238.61 393.15 240.88 395.45
  Q 241.33 395.90 243.84 398.80
  Q 245.68 400.91 247.85 402.68
  Q 250.22 404.60 250.96 405.97
  Q 251.70 407.36 252.06 408.91
  Q 252.52 410.93 252.91 411.88
  Q 254.99 417.05 256.04 421.25
  Q 256.45 422.87 257.56 424.11
  Q 261.51 428.58 258.60 431.92
  Q 256.66 434.14 256.31 434.88
  Q 254.11 439.61 253.65 445.89
  A 4.44 4.42 30.5 0 0 254.37 448.65
  Q 254.99 449.60 254.95 450.92
  Q 254.93 451.80 254.25 453.07
  Q 251.36 458.48 251.01 464.69
  Q 250.79 468.65 247.94 467.88
  Q 247.94 467.88 244.67 466.50
  Q 214.97 453.95 193.25 432.75
  Q 153.23 393.69 144.33 338.16
  Q 142.74 328.28 142.42 318.26
  Q 140.53 259.39 175.44 211.69
  Q 192.84 187.91 218.10 171.62
  Q 260.36 144.36 310.26 144.25
  Q 320.26 144.23 330.21 145.47
  Q 377.31 151.33 414.38 180.54
  Q 422.22 186.71 429.28 193.88
  Q 470.37 235.58 477.01 295.25
  Q 478.07 304.73 477.86 314.25
  Q 477.42 333.76 472.87 352.60
  Q 470.57 362.08 466.83 371.65
  Q 438.45 444.27 363.76 471.07
  A 1.48 1.48 72.6 0 1 361.83 470.06
  Q 359.75 462.25 358.17 454.53
  Q 357.45 450.99 357.72 447.03
  Q 358.02 442.77 358.21 438.50
  Q 358.31 436.18 357.53 434.13
  Q 357.22 433.31 355.02 430.67
  Q 353.03 428.30 352.96 425.27
  Q 352.91 423.39 354.46 419.99
  Q 357.21 413.97 358.72 407.49
  Q 359.17 405.53 360.16 403.84
  Q 360.84 402.67 362.62 400.88
  Q 368.66 394.80 374.39 388.43
  Q 374.50 388.31 377.86 384.81
  Q 382.84 379.60 385.48 372.88
  Q 387.26 368.35 387.29 368.30
  Q 389.18 363.92 391.11 359.55
  Q 392.94 355.38 397.43 356.57
  Q 401.69 357.69 405.82 356.20
  Q 413.11 353.59 418.52 348.18
  Q 420.01 346.69 421.89 345.99
  Q 428.36 343.54 434.11 339.74
  Q 435.30 338.95 438.90 335.69
  Q 441.24 333.57 444.04 332.02
  Q 451.42 327.95 458.89 323.57
  Q 460.95 322.36 461.04 319.97
  Q 461.40 309.99 457.99 299.48
  Q 457.31 297.38 459.20 298.52
  Q 469.51 304.77 476.23 315.33
  A 0.46 0.39 50.8 0 0 476.90 315.46
  Q 477.28 315.03 477.06 314.23
  Q 472.52 297.40 466.94 286.31
  Q 462.71 277.92 454.10 266.18
  Q 452.86 264.49 451.00 263.26
  Q 449.18 262.05 447.41 260.80
  Q 443.70 258.16 439.94 257.81
  Q 436.29 257.48 433.92 255.58
  Q 428.38 251.13 422.25 247.57
  Q 418.12 245.18 416.57 243.97
  Q 413.62 241.69 411.69 239.31
  Q 409.37 236.47 406.15 236.06
  Q 403.49 235.73 403.38 235.70
  Q 391.78 233.28 379.94 233.42
  Q 377.19 233.45 373.74 234.53
  Q 370.66 235.50 366.69 236.44
  Q 363.32 237.23 364.31 240.69
  Q 365.25 243.96 364.43 246.25
  Q 363.84 247.87 363.83 247.93
  Q 362.73 252.14 362.27 256.34
  A 2.66 2.65 -66.2 0 0 363.15 258.62
  Q 365.68 260.85 368.34 261.72
  Q 369.40 262.06 374.17 262.73
  Q 377.27 263.16 380.40 263.27
  Q 380.55 263.28 383.42 263.64
  Q 386.67 264.04 389.76 261.73
  Q 391.52 260.41 393.26 261.75
  Q 396.22 264.03 397.95 267.56
  Q 399.27 270.28 399.77 274.64
  Q 400.62 282.04 399.75 289.48
  A 1.36 1.35 -82.6 0 1 398.21 290.67
  L 389.05 289.38
  A 1.67 1.66 -53.3 0 0 388.11 289.52
  Q 382.85 291.97 378.32 295.62
  A 1.67 1.31 -61.1 0 1 377.45 295.99
  Q 375.48 296.14 372.94 295.06
  Q 367.59 292.80 361.41 294.85
  Q 354.87 297.02 350.25 300.25
  Q 348.88 301.21 347.68 302.89
  Q 345.88 305.40 345.43 305.75
  Q 342.58 308.02 339.12 304.49
  A 0.71 0.70 52.9 0 1 339.27 303.39
  Q 340.45 302.71 341.71 301.97
  Q 343.29 301.04 342.21 300.01
  A 1.59 0.68 87.7 0 1 341.82 299.19
  L 341.67 298.50
  A 0.88 0.51 1.2 0 0 340.94 298.06
  L 336.11 297.52
  Q 333.28 297.21 335.90 295.89
  Q 338.01 294.84 339.27 293.49
  Q 340.57 292.12 338.68 292.02
  Q 330.55 291.62 330.80 284.61
  Q 330.93 281.25 330.88 280.89
  Q 330.59 278.93 329.67 277.30
  Q 328.80 275.77 329.00 274.01
  Q 329.41 270.39 326.71 268.24
  A 1.48 1.20 -80.4 0 1 326.26 267.44
  L 325.02 261.07
  A 0.91 0.85 80.8 0 1 325.74 260.00
  Q 331.66 259.32 337.22 255.97
  Q 338.74 255.05 336.97 254.88
  Q 334.62 254.66 331.83 255.61
  Q 331.09 255.86 330.99 255.25
  A 1.22 0.78 -35.1 0 1 331.34 254.39
  Q 338.09 247.29 344.52 239.90
  Q 344.84 239.53 344.94 239.15
  Q 345.38 237.56 343.76 238.79
  Q 340.21 241.48 336.55 244.07
  Q 334.05 245.84 335.56 243.17
  Q 344.16 227.90 347.59 210.97
  Q 348.17 208.15 346.79 209.15
  Q 346.40 209.44 345.95 210.09
  Q 340.41 218.26 333.81 225.57
  Q 331.49 228.15 332.88 225.10
  Q 333.52 223.68 332.81 222.63
  A 0.33 0.30 -49.4 0 0 332.27 222.69
  Q 324.63 237.41 313.66 251.75
  A 2.99 2.45 -70.2 0 1 311.78 252.87
  L 304.57 253.55
  A 1.47 1.33 67.8 0 1 303.32 252.95
  Q 301.75 250.77 300.65 248.33
  Q 296.51 239.11 292.10 230.01
  Q 291.21 228.18 289.74 224.35
  Q 288.63 221.47 287.17 218.75
  A 1.15 0.82 75.2 0 0 286.46 218.16
  Z"
/>
<path fill="#000000" d="
  M 295.67 267.81
  Q 294.14 267.55 295.45 266.73
  Q 297.20 265.62 299.45 266.19
  Q 303.39 267.18 306.69 269.56
  Q 308.42 270.81 306.44 270.94
  Q 305.19 271.01 303.98 270.76
  Q 303.20 270.60 301.75 269.84
  Q 298.89 268.34 295.67 267.81
  Z"
/>
<path fill="#000000" d="
  M 320.79 268.48
  Q 316.11 268.68 313.68 270.17
  Q 312.21 271.07 310.87 271.01
  Q 308.95 270.94 310.24 269.51
  Q 312.20 267.35 314.96 266.38
  Q 318.83 265.01 320.87 268.33
  A 0.10 0.10 74.0 0 1 320.79 268.48
  Z"
/>
<path fill="#000000" d="
  M 56.79 279.82
  A 0.39 0.39 63.8 0 1 57.00 279.19
  Q 58.98 278.69 60.90 277.46
  Q 64.67 275.03 68.96 273.25
  Q 69.53 273.01 69.43 273.61
  L 67.25 287.00
  Q 66.75 290.07 64.81 286.94
  Q 63.51 284.84 61.31 283.69
  Q 58.89 282.43 56.79 279.82
  Z"
/>
<path fill="#000000" d="
  M 298.10 287.51
  Q 295.44 285.78 299.23 285.51
  Q 308.48 284.86 318.03 285.00
  Q 321.44 285.05 319.12 287.55
  Q 315.82 291.09 310.68 292.33
  Q 308.45 292.88 306.32 292.29
  Q 304.17 291.71 302.20 290.60
  Q 300.21 289.48 302.21 288.82
  A 1.02 0.62 -9.7 0 0 302.88 288.24
  Q 303.09 287.18 300.05 287.86
  A 2.59 2.57 -34.7 0 1 298.10 287.51
  Z"
/>
</svg>
